G75*
G70*
%OFA0B0*%
%FSLAX24Y24*%
%IPPOS*%
%LPD*%
%AMOC8*
5,1,8,0,0,1.08239X$1,22.5*
%
%ADD10C,0.0120*%
%ADD11C,0.0080*%
%ADD12C,0.0160*%
%ADD13C,0.0000*%
D10*
X003032Y001422D02*
X003032Y007223D01*
X003034Y007277D01*
X003039Y007330D01*
X003048Y007383D01*
X003061Y007435D01*
X003077Y007487D01*
X003097Y007537D01*
X003120Y007585D01*
X003147Y007632D01*
X003176Y007677D01*
X003209Y007720D01*
X003244Y007760D01*
X003282Y007798D01*
X003322Y007833D01*
X003365Y007866D01*
X003410Y007895D01*
X003457Y007922D01*
X003505Y007945D01*
X003555Y007965D01*
X003607Y007981D01*
X003659Y007994D01*
X003712Y008003D01*
X003765Y008008D01*
X003819Y008010D01*
X007994Y008010D01*
X008046Y008013D01*
X008098Y008012D01*
X008150Y008007D01*
X008201Y007999D01*
X008252Y007986D01*
X008301Y007971D01*
X008350Y007952D01*
X008397Y007929D01*
X008442Y007903D01*
X008485Y007874D01*
X008526Y007842D01*
X008564Y007807D01*
X008600Y007770D01*
X008633Y007730D01*
X008664Y007687D01*
X008691Y007643D01*
X008715Y007597D01*
X008735Y007549D01*
X008752Y007500D01*
X008766Y007450D01*
X008776Y007399D01*
X008782Y007348D01*
X008782Y001422D01*
X008781Y001422D02*
X008779Y001368D01*
X008774Y001315D01*
X008765Y001262D01*
X008752Y001210D01*
X008736Y001158D01*
X008716Y001108D01*
X008693Y001060D01*
X008666Y001013D01*
X008637Y000968D01*
X008604Y000925D01*
X008569Y000885D01*
X008531Y000847D01*
X008491Y000812D01*
X008448Y000779D01*
X008403Y000750D01*
X008356Y000723D01*
X008308Y000700D01*
X008258Y000680D01*
X008206Y000664D01*
X008154Y000651D01*
X008101Y000642D01*
X008048Y000637D01*
X007994Y000635D01*
X003819Y000635D01*
X003765Y000637D01*
X003712Y000642D01*
X003659Y000651D01*
X003607Y000664D01*
X003555Y000680D01*
X003505Y000700D01*
X003457Y000723D01*
X003410Y000750D01*
X003365Y000779D01*
X003322Y000812D01*
X003282Y000847D01*
X003244Y000885D01*
X003209Y000925D01*
X003176Y000968D01*
X003147Y001013D01*
X003120Y001060D01*
X003097Y001108D01*
X003077Y001158D01*
X003061Y001210D01*
X003048Y001262D01*
X003039Y001315D01*
X003034Y001368D01*
X003032Y001422D01*
D11*
X003657Y001260D02*
X003907Y001010D01*
X005407Y001010D01*
X005657Y001260D01*
X005657Y001760D01*
X005407Y002010D01*
X005657Y002260D01*
X005657Y002760D01*
X005407Y003010D01*
X005657Y003260D01*
X005657Y003760D01*
X005407Y004010D01*
X003907Y004010D01*
X003657Y003760D01*
X003657Y003260D01*
X003907Y003010D01*
X003657Y002760D01*
X003657Y002260D01*
X003907Y002010D01*
X003657Y001760D01*
X003657Y001260D01*
X006777Y002385D02*
X006780Y002442D01*
X006787Y002499D01*
X006800Y002555D01*
X006818Y002609D01*
X006841Y002662D01*
X006869Y002712D01*
X006901Y002760D01*
X006937Y002804D01*
X006977Y002845D01*
X007021Y002883D01*
X007067Y002916D01*
X007117Y002944D01*
X007169Y002968D01*
X007223Y002988D01*
X007279Y003002D01*
X007335Y003011D01*
X007393Y003015D01*
X007450Y003014D01*
X007507Y003007D01*
X007563Y002995D01*
X007618Y002979D01*
X007671Y002957D01*
X007722Y002931D01*
X007770Y002900D01*
X007816Y002865D01*
X007858Y002825D01*
X007896Y002783D01*
X007930Y002736D01*
X007960Y002687D01*
X007985Y002636D01*
X008005Y002582D01*
X008021Y002527D01*
X008031Y002471D01*
X008036Y002414D01*
X008036Y002356D01*
X008031Y002299D01*
X008021Y002243D01*
X008005Y002188D01*
X007985Y002134D01*
X007960Y002083D01*
X007930Y002034D01*
X007896Y001987D01*
X007858Y001945D01*
X007816Y001905D01*
X007770Y001870D01*
X007722Y001839D01*
X007671Y001813D01*
X007618Y001791D01*
X007563Y001775D01*
X007507Y001763D01*
X007450Y001756D01*
X007393Y001755D01*
X007335Y001759D01*
X007279Y001768D01*
X007223Y001782D01*
X007169Y001802D01*
X007117Y001826D01*
X007067Y001854D01*
X007021Y001887D01*
X006977Y001925D01*
X006937Y001966D01*
X006901Y002010D01*
X006869Y002058D01*
X006841Y002108D01*
X006818Y002161D01*
X006800Y002215D01*
X006787Y002271D01*
X006780Y002328D01*
X006777Y002385D01*
X006057Y002385D02*
X006063Y002508D01*
X006079Y002630D01*
X006107Y002749D01*
X006146Y002866D01*
X006195Y002979D01*
X006254Y003086D01*
X006322Y003188D01*
X006400Y003284D01*
X006486Y003372D01*
X006579Y003451D01*
X006679Y003522D01*
X006786Y003584D01*
X006897Y003635D01*
X007013Y003676D01*
X007132Y003707D01*
X007254Y003726D01*
X007376Y003735D01*
X007499Y003732D01*
X007621Y003718D01*
X007742Y003693D01*
X007859Y003657D01*
X007973Y003611D01*
X008082Y003554D01*
X008186Y003488D01*
X008283Y003413D01*
X008372Y003329D01*
X008454Y003237D01*
X008527Y003138D01*
X008591Y003033D01*
X008645Y002923D01*
X008689Y002808D01*
X008722Y002690D01*
X008744Y002569D01*
X008756Y002446D01*
X008756Y002324D01*
X008744Y002201D01*
X008722Y002080D01*
X008689Y001962D01*
X008645Y001847D01*
X008591Y001737D01*
X008527Y001632D01*
X008454Y001533D01*
X008372Y001441D01*
X008283Y001357D01*
X008186Y001282D01*
X008082Y001216D01*
X007973Y001159D01*
X007859Y001113D01*
X007742Y001077D01*
X007621Y001052D01*
X007499Y001038D01*
X007376Y001035D01*
X007254Y001044D01*
X007132Y001063D01*
X007013Y001094D01*
X006897Y001135D01*
X006786Y001186D01*
X006679Y001248D01*
X006579Y001319D01*
X006486Y001398D01*
X006400Y001486D01*
X006322Y001582D01*
X006254Y001684D01*
X006195Y001791D01*
X006146Y001904D01*
X006107Y002021D01*
X006079Y002140D01*
X006063Y002262D01*
X006057Y002385D01*
X005982Y004560D02*
X006582Y004560D01*
X006602Y004562D01*
X006620Y004568D01*
X006638Y004577D01*
X006653Y004589D01*
X006665Y004604D01*
X006674Y004622D01*
X006680Y004640D01*
X006682Y004660D01*
X006682Y006360D01*
X006680Y006380D01*
X006674Y006398D01*
X006665Y006416D01*
X006653Y006431D01*
X006638Y006443D01*
X006620Y006452D01*
X006602Y006458D01*
X006582Y006460D01*
X005982Y006460D01*
X005962Y006458D01*
X005944Y006452D01*
X005926Y006443D01*
X005911Y006431D01*
X005899Y006416D01*
X005890Y006398D01*
X005884Y006380D01*
X005882Y006360D01*
X005882Y004660D01*
X005884Y004640D01*
X005890Y004622D01*
X005899Y004604D01*
X005911Y004589D01*
X005926Y004577D01*
X005944Y004568D01*
X005962Y004562D01*
X005982Y004560D01*
X005057Y004660D02*
X005057Y006360D01*
X005055Y006380D01*
X005049Y006398D01*
X005040Y006416D01*
X005028Y006431D01*
X005013Y006443D01*
X004995Y006452D01*
X004977Y006458D01*
X004957Y006460D01*
X004357Y006460D01*
X004337Y006458D01*
X004319Y006452D01*
X004301Y006443D01*
X004286Y006431D01*
X004274Y006416D01*
X004265Y006398D01*
X004259Y006380D01*
X004257Y006360D01*
X004257Y004660D01*
X004259Y004640D01*
X004265Y004622D01*
X004274Y004604D01*
X004286Y004589D01*
X004301Y004577D01*
X004319Y004568D01*
X004337Y004562D01*
X004357Y004560D01*
X004957Y004560D01*
X004977Y004562D01*
X004995Y004568D01*
X005013Y004577D01*
X005028Y004589D01*
X005040Y004604D01*
X005049Y004622D01*
X005055Y004640D01*
X005057Y004660D01*
X007507Y004660D02*
X007507Y006360D01*
X007509Y006380D01*
X007515Y006398D01*
X007524Y006416D01*
X007536Y006431D01*
X007551Y006443D01*
X007569Y006452D01*
X007587Y006458D01*
X007607Y006460D01*
X008207Y006460D01*
X008227Y006458D01*
X008245Y006452D01*
X008263Y006443D01*
X008278Y006431D01*
X008290Y006416D01*
X008299Y006398D01*
X008305Y006380D01*
X008307Y006360D01*
X008307Y004660D01*
X008305Y004640D01*
X008299Y004622D01*
X008290Y004604D01*
X008278Y004589D01*
X008263Y004577D01*
X008245Y004568D01*
X008227Y004562D01*
X008207Y004560D01*
X007607Y004560D01*
X007587Y004562D01*
X007569Y004568D01*
X007551Y004577D01*
X007536Y004589D01*
X007524Y004604D01*
X007515Y004622D01*
X007509Y004640D01*
X007507Y004660D01*
X007747Y007050D02*
X008027Y007050D01*
X007887Y007050D02*
X007887Y007470D01*
X007747Y007330D01*
X006402Y007330D02*
X006402Y007400D01*
X006332Y007470D01*
X006192Y007470D01*
X006122Y007400D01*
X006402Y007330D02*
X006122Y007050D01*
X006402Y007050D01*
X004777Y007260D02*
X004497Y007260D01*
X004707Y007470D01*
X004707Y007050D01*
D12*
X005907Y001885D02*
X005907Y000760D01*
X004657Y000760D01*
D13*
X006816Y002385D02*
X006818Y002439D01*
X006826Y002492D01*
X006838Y002544D01*
X006855Y002596D01*
X006876Y002645D01*
X006902Y002692D01*
X006932Y002737D01*
X006966Y002778D01*
X007004Y002817D01*
X007045Y002852D01*
X007089Y002883D01*
X007135Y002910D01*
X007184Y002932D01*
X007235Y002950D01*
X007287Y002964D01*
X007340Y002972D01*
X007394Y002976D01*
X007447Y002975D01*
X007501Y002969D01*
X007553Y002958D01*
X007605Y002942D01*
X007655Y002922D01*
X007702Y002897D01*
X007748Y002868D01*
X007790Y002835D01*
X007830Y002798D01*
X007865Y002758D01*
X007897Y002715D01*
X007925Y002669D01*
X007949Y002620D01*
X007968Y002570D01*
X007983Y002518D01*
X007992Y002465D01*
X007997Y002412D01*
X007997Y002358D01*
X007992Y002305D01*
X007983Y002252D01*
X007968Y002200D01*
X007949Y002150D01*
X007925Y002101D01*
X007897Y002055D01*
X007865Y002012D01*
X007830Y001972D01*
X007790Y001935D01*
X007748Y001902D01*
X007703Y001873D01*
X007655Y001848D01*
X007605Y001828D01*
X007553Y001812D01*
X007501Y001801D01*
X007447Y001795D01*
X007394Y001794D01*
X007340Y001798D01*
X007287Y001806D01*
X007235Y001820D01*
X007184Y001838D01*
X007135Y001860D01*
X007089Y001887D01*
X007045Y001918D01*
X007004Y001953D01*
X006966Y001992D01*
X006932Y002033D01*
X006902Y002078D01*
X006876Y002125D01*
X006855Y002174D01*
X006838Y002226D01*
X006826Y002278D01*
X006818Y002331D01*
X006816Y002385D01*
M02*
