G75*
G70*
%OFA0B0*%
%FSLAX24Y24*%
%IPPOS*%
%LPD*%
%AMOC8*
5,1,8,0,0,1.08239X$1,22.5*
%
%ADD10C,0.0197*%
%ADD11C,0.0160*%
%ADD12C,0.0090*%
%ADD13C,0.0080*%
%ADD14C,0.0100*%
%ADD15C,0.0000*%
D10*
X001187Y002528D02*
X001187Y029278D01*
X001189Y029361D01*
X001195Y029444D01*
X001205Y029527D01*
X001219Y029609D01*
X001236Y029691D01*
X001258Y029771D01*
X001283Y029850D01*
X001312Y029928D01*
X001345Y030005D01*
X001382Y030080D01*
X001421Y030153D01*
X001465Y030224D01*
X001511Y030293D01*
X001561Y030360D01*
X001614Y030424D01*
X001670Y030486D01*
X001729Y030545D01*
X001791Y030601D01*
X001855Y030654D01*
X001922Y030704D01*
X001991Y030750D01*
X002062Y030794D01*
X002135Y030833D01*
X002210Y030870D01*
X002287Y030903D01*
X002365Y030932D01*
X002444Y030957D01*
X002524Y030979D01*
X002606Y030996D01*
X002688Y031010D01*
X002771Y031020D01*
X002854Y031026D01*
X002937Y031028D01*
X018687Y031028D01*
X018770Y031026D01*
X018853Y031020D01*
X018936Y031010D01*
X019018Y030996D01*
X019100Y030979D01*
X019180Y030957D01*
X019259Y030932D01*
X019337Y030903D01*
X019414Y030870D01*
X019489Y030833D01*
X019562Y030794D01*
X019633Y030750D01*
X019702Y030704D01*
X019769Y030654D01*
X019833Y030601D01*
X019895Y030545D01*
X019954Y030486D01*
X020010Y030424D01*
X020063Y030360D01*
X020113Y030293D01*
X020159Y030224D01*
X020203Y030153D01*
X020242Y030080D01*
X020279Y030005D01*
X020312Y029928D01*
X020341Y029850D01*
X020366Y029771D01*
X020388Y029691D01*
X020405Y029609D01*
X020419Y029527D01*
X020429Y029444D01*
X020435Y029361D01*
X020437Y029278D01*
X020437Y002528D01*
X020435Y002445D01*
X020429Y002362D01*
X020419Y002279D01*
X020405Y002197D01*
X020388Y002115D01*
X020366Y002035D01*
X020341Y001956D01*
X020312Y001878D01*
X020279Y001801D01*
X020242Y001726D01*
X020203Y001653D01*
X020159Y001582D01*
X020113Y001513D01*
X020063Y001446D01*
X020010Y001382D01*
X019954Y001320D01*
X019895Y001261D01*
X019833Y001205D01*
X019769Y001152D01*
X019702Y001102D01*
X019633Y001056D01*
X019562Y001012D01*
X019489Y000973D01*
X019414Y000936D01*
X019337Y000903D01*
X019259Y000874D01*
X019180Y000849D01*
X019100Y000827D01*
X019018Y000810D01*
X018936Y000796D01*
X018853Y000786D01*
X018770Y000780D01*
X018687Y000778D01*
X002937Y000778D01*
X002854Y000780D01*
X002771Y000786D01*
X002688Y000796D01*
X002606Y000810D01*
X002524Y000827D01*
X002444Y000849D01*
X002365Y000874D01*
X002287Y000903D01*
X002210Y000936D01*
X002135Y000973D01*
X002062Y001012D01*
X001991Y001056D01*
X001922Y001102D01*
X001855Y001152D01*
X001791Y001205D01*
X001729Y001261D01*
X001670Y001320D01*
X001614Y001382D01*
X001561Y001446D01*
X001511Y001513D01*
X001465Y001582D01*
X001421Y001653D01*
X001382Y001726D01*
X001345Y001801D01*
X001312Y001878D01*
X001283Y001956D01*
X001258Y002035D01*
X001236Y002115D01*
X001219Y002197D01*
X001205Y002279D01*
X001195Y002362D01*
X001189Y002445D01*
X001187Y002528D01*
D11*
X002017Y006358D02*
X002017Y006986D01*
X002331Y006986D01*
X002436Y006882D01*
X002436Y006672D01*
X002331Y006568D01*
X002017Y006568D01*
X002742Y006463D02*
X002847Y006358D01*
X002952Y006463D01*
X003056Y006358D01*
X003161Y006463D01*
X003161Y006777D01*
X003467Y006777D02*
X003467Y006358D01*
X003467Y006568D02*
X003677Y006777D01*
X003781Y006777D01*
X003161Y007358D02*
X002742Y007777D01*
X002436Y007986D02*
X002017Y007986D01*
X002227Y007986D02*
X002227Y007358D01*
X002742Y007358D02*
X003161Y007777D01*
X003161Y008358D02*
X002742Y008777D01*
X002436Y008882D02*
X002436Y008672D01*
X002331Y008568D01*
X002017Y008568D01*
X002227Y008568D02*
X002436Y008358D01*
X002742Y008358D02*
X003161Y008777D01*
X003330Y009483D02*
X003330Y010111D01*
X003644Y010111D01*
X003748Y010007D01*
X003748Y009797D01*
X003644Y009693D01*
X003330Y009693D01*
X003539Y009693D02*
X003748Y009483D01*
X003750Y009216D02*
X003750Y008028D01*
X003750Y009216D02*
X004937Y009216D01*
X004473Y009588D02*
X004369Y009483D01*
X004159Y009483D01*
X004055Y009588D01*
X004159Y009797D02*
X004055Y009902D01*
X004055Y010007D01*
X004159Y010111D01*
X004369Y010111D01*
X004473Y010007D01*
X004369Y009797D02*
X004159Y009797D01*
X004369Y009797D02*
X004473Y009693D01*
X004473Y009588D01*
X004780Y009797D02*
X005198Y009797D01*
X005505Y010007D02*
X005609Y010111D01*
X005819Y010111D01*
X005923Y010007D01*
X005923Y009902D01*
X005505Y009483D01*
X005923Y009483D01*
X006230Y009588D02*
X006334Y009483D01*
X006544Y009483D01*
X006648Y009588D01*
X006648Y009693D01*
X006544Y009797D01*
X006439Y009797D01*
X006544Y009797D02*
X006648Y009902D01*
X006648Y010007D01*
X006544Y010111D01*
X006334Y010111D01*
X006230Y010007D01*
X006955Y010007D02*
X007059Y010111D01*
X007269Y010111D01*
X007373Y010007D01*
X007373Y009902D01*
X006955Y009483D01*
X007373Y009483D01*
X006790Y008052D02*
X006371Y008052D01*
X006267Y007947D01*
X006267Y007633D01*
X006895Y007633D01*
X006895Y007947D01*
X006790Y008052D01*
X006895Y007327D02*
X006267Y007327D01*
X006267Y006908D02*
X006895Y007327D01*
X006895Y006908D02*
X006267Y006908D01*
X006371Y006602D02*
X006267Y006497D01*
X006267Y006288D01*
X006371Y006183D01*
X006790Y006183D01*
X006895Y006288D01*
X006895Y006497D01*
X006790Y006602D01*
X006581Y006602D01*
X006581Y006392D01*
X002742Y006463D02*
X002742Y006777D01*
X002017Y008358D02*
X002017Y008986D01*
X002331Y008986D01*
X002436Y008882D01*
X010437Y008778D02*
X011687Y008778D01*
X010437Y008778D02*
X010437Y009841D01*
X017937Y013591D02*
X019125Y013591D01*
X019125Y014778D01*
X007625Y028778D02*
X007625Y029966D01*
X006437Y029966D01*
D12*
X005723Y030090D02*
X005606Y029973D01*
X005374Y029973D01*
X005257Y030090D01*
X005257Y030555D01*
X005374Y030671D01*
X005606Y030671D01*
X005723Y030555D01*
X004998Y030555D02*
X004998Y030439D01*
X004532Y029973D01*
X004998Y029973D01*
X004998Y030555D02*
X004881Y030671D01*
X004649Y030671D01*
X004532Y030555D01*
X004282Y030671D02*
X004049Y030671D01*
X004165Y030671D02*
X004165Y029973D01*
X004049Y029973D02*
X004282Y029973D01*
X009232Y029771D02*
X009232Y029306D01*
X009465Y029073D01*
X009698Y029306D01*
X009698Y029771D01*
X009581Y030073D02*
X009349Y030073D01*
X009232Y030190D01*
X009349Y030422D02*
X009581Y030422D01*
X009698Y030306D01*
X009698Y030190D01*
X009581Y030073D01*
X009349Y030422D02*
X009232Y030539D01*
X009232Y030655D01*
X009349Y030771D01*
X009581Y030771D01*
X009698Y030655D01*
X009957Y030422D02*
X009957Y030190D01*
X010074Y030073D01*
X010306Y030073D01*
X010423Y030306D02*
X009957Y030306D01*
X009957Y030422D02*
X010074Y030539D01*
X010306Y030539D01*
X010423Y030422D01*
X010423Y030306D01*
X010682Y030073D02*
X010682Y030539D01*
X011031Y030539D01*
X011148Y030422D01*
X011148Y030073D01*
X011407Y030073D02*
X011756Y030073D01*
X011873Y030190D01*
X011756Y030306D01*
X011524Y030306D01*
X011407Y030422D01*
X011524Y030539D01*
X011873Y030539D01*
X012132Y030422D02*
X012132Y030190D01*
X012249Y030073D01*
X012481Y030073D01*
X012598Y030190D01*
X012598Y030422D01*
X012481Y030539D01*
X012249Y030539D01*
X012132Y030422D01*
X012857Y030306D02*
X013090Y030539D01*
X013206Y030539D01*
X012857Y030539D02*
X012857Y030073D01*
X012974Y028771D02*
X012857Y028655D01*
X012974Y028771D02*
X013206Y028771D01*
X013323Y028655D01*
X013323Y028539D01*
X012857Y028073D01*
X013323Y028073D01*
X013582Y028190D02*
X014048Y028655D01*
X014048Y028190D01*
X013931Y028073D01*
X013699Y028073D01*
X013582Y028190D01*
X013582Y028655D01*
X013699Y028771D01*
X013931Y028771D01*
X014048Y028655D01*
X014307Y028655D02*
X014307Y028190D01*
X014773Y028655D01*
X014773Y028190D01*
X014656Y028073D01*
X014424Y028073D01*
X014307Y028190D01*
X014307Y028655D02*
X014424Y028771D01*
X014656Y028771D01*
X014773Y028655D01*
X015032Y028771D02*
X015498Y028771D01*
X015498Y028655D01*
X015032Y028190D01*
X015032Y028073D01*
X015144Y030073D02*
X015144Y030771D01*
X014911Y030771D02*
X015377Y030771D01*
X015636Y030771D02*
X015985Y030771D01*
X016102Y030655D01*
X016102Y030422D01*
X015985Y030306D01*
X015636Y030306D01*
X015636Y030073D02*
X015636Y030771D01*
X015869Y030306D02*
X016102Y030073D01*
X016361Y030073D02*
X016827Y030073D01*
X016361Y030073D02*
X016361Y030771D01*
X014652Y030655D02*
X014535Y030771D01*
X014303Y030771D01*
X014186Y030655D01*
X014186Y030190D01*
X014303Y030073D01*
X014535Y030073D01*
X014652Y030190D01*
X012598Y028771D02*
X012132Y028073D01*
X011873Y028190D02*
X011756Y028073D01*
X011524Y028073D01*
X011407Y028190D01*
X011407Y028306D01*
X011524Y028422D01*
X011756Y028422D01*
X011873Y028306D01*
X011873Y028190D01*
X011756Y028422D02*
X011873Y028539D01*
X011873Y028655D01*
X011756Y028771D01*
X011524Y028771D01*
X011407Y028655D01*
X011407Y028539D01*
X011524Y028422D01*
X011148Y028771D02*
X010682Y028073D01*
X010423Y028073D02*
X009957Y028073D01*
X010423Y028539D01*
X010423Y028655D01*
X010306Y028771D01*
X010074Y028771D01*
X009957Y028655D01*
X009957Y029073D02*
X010423Y029073D01*
X010190Y029073D02*
X010190Y029771D01*
X009957Y029539D01*
X010682Y029190D02*
X010799Y029190D01*
X010799Y029073D01*
X010682Y029073D01*
X010682Y029190D01*
X011045Y029190D02*
X011045Y029655D01*
X011161Y029771D01*
X011394Y029771D01*
X011510Y029655D01*
X011045Y029190D01*
X011161Y029073D01*
X011394Y029073D01*
X011510Y029190D01*
X011510Y029655D01*
X009698Y028073D02*
X009232Y028073D01*
X009465Y028073D02*
X009465Y028771D01*
X009232Y028539D01*
X019623Y014934D02*
X019856Y014934D01*
X019972Y014818D01*
X019972Y014469D01*
X020205Y014469D02*
X019507Y014469D01*
X019507Y014818D01*
X019623Y014934D01*
X019623Y014209D02*
X019507Y014093D01*
X019507Y013860D01*
X019623Y013744D01*
X019739Y013744D01*
X019856Y013860D01*
X019856Y014093D01*
X019972Y014209D01*
X020089Y014209D01*
X020205Y014093D01*
X020205Y013860D01*
X020089Y013744D01*
X020205Y013493D02*
X020205Y013261D01*
X020205Y013377D02*
X019507Y013377D01*
X019507Y013261D02*
X019507Y013493D01*
X019276Y010239D02*
X019043Y010239D01*
X018927Y010122D01*
X018927Y010006D01*
X019043Y009773D01*
X018694Y009773D01*
X018694Y010239D01*
X018392Y010122D02*
X018392Y009890D01*
X018276Y009773D01*
X018276Y009514D02*
X018392Y009397D01*
X018392Y009048D01*
X017694Y009048D01*
X017694Y009397D01*
X017811Y009514D01*
X017927Y009514D01*
X018043Y009397D01*
X018043Y009048D01*
X018043Y008789D02*
X017811Y008789D01*
X017694Y008672D01*
X017694Y008323D01*
X018392Y008323D01*
X018160Y008323D02*
X018160Y008672D01*
X018043Y008789D01*
X018043Y009397D02*
X018160Y009514D01*
X018276Y009514D01*
X018694Y009397D02*
X018694Y009048D01*
X019392Y009048D01*
X019392Y009397D01*
X019276Y009514D01*
X019160Y009514D01*
X019043Y009397D01*
X019043Y009048D01*
X019043Y008789D02*
X018811Y008789D01*
X018694Y008672D01*
X018694Y008323D01*
X019392Y008323D01*
X019160Y008323D02*
X019160Y008672D01*
X019043Y008789D01*
X019043Y009397D02*
X018927Y009514D01*
X018811Y009514D01*
X018694Y009397D01*
X018392Y010122D02*
X018276Y010239D01*
X018160Y010239D01*
X018043Y010122D01*
X018043Y010006D01*
X018043Y010122D02*
X017927Y010239D01*
X017811Y010239D01*
X017694Y010122D01*
X017694Y009890D01*
X017811Y009773D01*
X017392Y010122D02*
X016694Y010122D01*
X017043Y009773D01*
X017043Y010239D01*
X016927Y009514D02*
X016811Y009514D01*
X016694Y009397D01*
X016694Y009048D01*
X017392Y009048D01*
X017392Y009397D01*
X017276Y009514D01*
X017160Y009514D01*
X017043Y009397D01*
X017043Y009048D01*
X017043Y008789D02*
X016811Y008789D01*
X016694Y008672D01*
X016694Y008323D01*
X017392Y008323D01*
X017160Y008323D02*
X017160Y008672D01*
X017043Y008789D01*
X017043Y009397D02*
X016927Y009514D01*
X019276Y009773D02*
X019392Y009890D01*
X019392Y010122D01*
X019276Y010239D01*
X015881Y005414D02*
X015765Y005414D01*
X015532Y005181D01*
X015532Y004948D02*
X015532Y005414D01*
X015273Y005297D02*
X015156Y005414D01*
X014924Y005414D01*
X014807Y005297D01*
X014807Y005065D01*
X014924Y004948D01*
X015156Y004948D01*
X015273Y005065D01*
X015273Y005297D01*
X014548Y005297D02*
X014548Y005065D01*
X014431Y004948D01*
X014199Y004948D01*
X014082Y005065D01*
X014082Y005297D01*
X014199Y005414D01*
X014431Y005414D01*
X014548Y005297D01*
X013823Y005065D02*
X013823Y005530D01*
X013706Y005646D01*
X013357Y005646D01*
X013357Y004948D01*
X013706Y004948D01*
X013823Y005065D01*
X011923Y004886D02*
X011457Y004886D01*
X011923Y005351D01*
X011923Y005467D01*
X011806Y005584D01*
X011574Y005584D01*
X011457Y005467D01*
X011198Y005584D02*
X011198Y005118D01*
X010965Y004886D01*
X010732Y005118D01*
X010732Y005584D01*
X010048Y004886D02*
X009582Y004886D01*
X009815Y004886D02*
X009815Y005584D01*
X009582Y005351D01*
X009323Y005118D02*
X009323Y005584D01*
X009323Y005118D02*
X009090Y004886D01*
X008857Y005118D01*
X008857Y005584D01*
X007960Y005467D02*
X007960Y005235D01*
X007844Y005118D01*
X007495Y005118D01*
X007495Y004886D02*
X007495Y005584D01*
X007844Y005584D01*
X007960Y005467D01*
X007727Y005118D02*
X007960Y004886D01*
X007235Y004886D02*
X007235Y005584D01*
X007002Y005118D02*
X007235Y004886D01*
X007002Y005118D02*
X006770Y004886D01*
X006770Y005584D01*
X006510Y005467D02*
X006510Y005235D01*
X006394Y005118D01*
X006045Y005118D01*
X006045Y004886D02*
X006045Y005584D01*
X006394Y005584D01*
X006510Y005467D01*
X005523Y005530D02*
X005523Y005065D01*
X005406Y004948D01*
X005057Y004948D01*
X005057Y005646D01*
X005406Y005646D01*
X005523Y005530D01*
X004798Y005646D02*
X004798Y004948D01*
X004332Y005646D01*
X004332Y004948D01*
X004073Y005065D02*
X004073Y005297D01*
X003840Y005297D01*
X003607Y005065D02*
X003724Y004948D01*
X003956Y004948D01*
X004073Y005065D01*
X004073Y005530D02*
X003956Y005646D01*
X003724Y005646D01*
X003607Y005530D01*
X003607Y005065D01*
D13*
X004187Y006028D02*
X003937Y006278D01*
X003937Y006778D01*
X004187Y007028D01*
X003937Y007278D01*
X003937Y007778D01*
X004187Y008028D01*
X003937Y008278D01*
X003937Y008778D01*
X004187Y009028D01*
X005687Y009028D01*
X005937Y008778D01*
X005937Y008278D01*
X005687Y008028D01*
X005937Y007778D01*
X005937Y007278D01*
X005687Y007028D01*
X005937Y006778D01*
X005937Y006278D01*
X005687Y006028D01*
X004187Y006028D01*
X004505Y004748D02*
X004505Y004668D01*
X012375Y004668D01*
X012375Y002068D01*
X012375Y001128D01*
X004505Y001128D01*
X004505Y002068D01*
X004505Y004668D01*
X004505Y004748D02*
X012375Y004748D01*
X012375Y004668D01*
X012473Y004668D02*
X012473Y004748D01*
X016403Y004748D01*
X016403Y004668D01*
X016403Y002068D01*
X016403Y001128D01*
X012473Y001128D01*
X012473Y002068D01*
X012473Y004668D01*
X016403Y004668D01*
X016647Y004529D02*
X016647Y004108D01*
X016647Y004248D02*
X016857Y004248D01*
X016927Y004318D01*
X016927Y004459D01*
X016857Y004529D01*
X016647Y004529D01*
X016787Y004248D02*
X016927Y004108D01*
X017107Y004178D02*
X017177Y004108D01*
X017317Y004108D01*
X017387Y004178D01*
X017387Y004248D01*
X017317Y004318D01*
X017107Y004318D01*
X017107Y004178D01*
X017107Y004318D02*
X017247Y004459D01*
X017387Y004529D01*
X017647Y004529D02*
X017857Y004529D01*
X017927Y004459D01*
X017927Y004318D01*
X017857Y004248D01*
X017647Y004248D01*
X017787Y004248D02*
X017927Y004108D01*
X018107Y004108D02*
X018107Y004178D01*
X018387Y004459D01*
X018387Y004529D01*
X018107Y004529D01*
X017647Y004529D02*
X017647Y004108D01*
X018647Y004108D02*
X018647Y004529D01*
X018857Y004529D01*
X018927Y004459D01*
X018927Y004318D01*
X018857Y004248D01*
X018647Y004248D01*
X018787Y004248D02*
X018927Y004108D01*
X019107Y004318D02*
X019387Y004318D01*
X019317Y004108D02*
X019317Y004529D01*
X019107Y004318D01*
X018587Y005528D02*
X018589Y005573D01*
X018594Y005619D01*
X018602Y005663D01*
X018614Y005707D01*
X018630Y005750D01*
X018648Y005792D01*
X018670Y005832D01*
X018694Y005870D01*
X018721Y005906D01*
X018751Y005941D01*
X018784Y005972D01*
X018819Y006002D01*
X018587Y005528D02*
X018589Y005483D01*
X018594Y005437D01*
X018602Y005393D01*
X018614Y005349D01*
X018630Y005306D01*
X018648Y005264D01*
X018670Y005224D01*
X018694Y005186D01*
X018721Y005150D01*
X018751Y005115D01*
X018784Y005084D01*
X018819Y005054D01*
X019787Y005528D02*
X019785Y005574D01*
X019780Y005620D01*
X019771Y005666D01*
X019759Y005711D01*
X019743Y005754D01*
X019724Y005796D01*
X019701Y005837D01*
X019676Y005876D01*
X019648Y005912D01*
X019617Y005947D01*
X019583Y005979D01*
X019547Y006008D01*
X019787Y005528D02*
X019785Y005481D01*
X019779Y005433D01*
X019770Y005387D01*
X019757Y005341D01*
X019741Y005297D01*
X019721Y005253D01*
X019697Y005212D01*
X019671Y005173D01*
X019641Y005136D01*
X019608Y005101D01*
X019573Y005069D01*
X019536Y005040D01*
X017819Y006002D02*
X017784Y005972D01*
X017751Y005941D01*
X017721Y005906D01*
X017694Y005870D01*
X017670Y005832D01*
X017648Y005792D01*
X017630Y005750D01*
X017614Y005707D01*
X017602Y005663D01*
X017594Y005619D01*
X017589Y005573D01*
X017587Y005528D01*
X016819Y006002D02*
X016784Y005972D01*
X016751Y005941D01*
X016721Y005906D01*
X016694Y005870D01*
X016670Y005832D01*
X016648Y005792D01*
X016630Y005750D01*
X016614Y005707D01*
X016602Y005663D01*
X016594Y005619D01*
X016589Y005573D01*
X016587Y005528D01*
X016589Y005483D01*
X016594Y005437D01*
X016602Y005393D01*
X016614Y005349D01*
X016630Y005306D01*
X016648Y005264D01*
X016670Y005224D01*
X016694Y005186D01*
X016721Y005150D01*
X016751Y005115D01*
X016784Y005084D01*
X016819Y005054D01*
X017787Y005528D02*
X017785Y005574D01*
X017780Y005620D01*
X017771Y005666D01*
X017759Y005711D01*
X017743Y005754D01*
X017724Y005796D01*
X017701Y005837D01*
X017676Y005876D01*
X017648Y005912D01*
X017617Y005947D01*
X017583Y005979D01*
X017547Y006008D01*
X017787Y005528D02*
X017785Y005481D01*
X017779Y005433D01*
X017770Y005387D01*
X017757Y005341D01*
X017741Y005297D01*
X017721Y005253D01*
X017697Y005212D01*
X017671Y005173D01*
X017641Y005136D01*
X017608Y005101D01*
X017573Y005069D01*
X017536Y005040D01*
X017819Y005054D02*
X017784Y005084D01*
X017751Y005115D01*
X017721Y005150D01*
X017694Y005186D01*
X017670Y005224D01*
X017648Y005264D01*
X017630Y005306D01*
X017614Y005349D01*
X017602Y005393D01*
X017594Y005437D01*
X017589Y005483D01*
X017587Y005528D01*
X018547Y006008D02*
X018583Y005979D01*
X018617Y005947D01*
X018648Y005912D01*
X018676Y005876D01*
X018701Y005837D01*
X018724Y005796D01*
X018743Y005754D01*
X018759Y005711D01*
X018771Y005666D01*
X018780Y005620D01*
X018785Y005574D01*
X018787Y005528D01*
X018785Y005481D01*
X018779Y005433D01*
X018770Y005387D01*
X018757Y005341D01*
X018741Y005297D01*
X018721Y005253D01*
X018697Y005212D01*
X018671Y005173D01*
X018641Y005136D01*
X018608Y005101D01*
X018573Y005069D01*
X018536Y005040D01*
X018187Y007478D02*
X018187Y007578D01*
X019187Y007578D02*
X019187Y007478D01*
X017187Y007478D02*
X017187Y007578D01*
X016637Y007579D02*
X016637Y007298D01*
X016567Y007228D01*
X016427Y007228D01*
X016357Y007298D01*
X016637Y007579D01*
X016567Y007649D01*
X016427Y007649D01*
X016357Y007579D01*
X016357Y007298D01*
X016177Y007298D02*
X016177Y007368D01*
X016107Y007438D01*
X016037Y007438D01*
X016107Y007438D02*
X016177Y007509D01*
X016177Y007579D01*
X016107Y007649D01*
X015967Y007649D01*
X015897Y007579D01*
X015716Y007579D02*
X015646Y007649D01*
X015506Y007649D01*
X015436Y007579D01*
X015576Y007438D02*
X015646Y007438D01*
X015716Y007368D01*
X015716Y007298D01*
X015646Y007228D01*
X015506Y007228D01*
X015436Y007298D01*
X015646Y007438D02*
X015716Y007509D01*
X015716Y007579D01*
X015897Y007298D02*
X015967Y007228D01*
X016107Y007228D01*
X016177Y007298D01*
X015437Y008778D02*
X014937Y008778D01*
X014687Y009028D01*
X014687Y010528D01*
X014937Y010778D01*
X015437Y010778D01*
X015687Y010528D01*
X015687Y009028D01*
X015437Y008778D01*
X014687Y009028D02*
X014437Y008778D01*
X013937Y008778D01*
X013687Y009028D01*
X013687Y010528D01*
X013937Y010778D01*
X014437Y010778D01*
X014687Y010528D01*
X013687Y010528D02*
X013437Y010778D01*
X012937Y010778D01*
X012687Y010528D01*
X012687Y009028D01*
X012937Y008778D01*
X013437Y008778D01*
X013687Y009028D01*
X013058Y008439D02*
X012848Y008298D01*
X013058Y008158D01*
X012848Y008158D02*
X012848Y008579D01*
X012668Y008509D02*
X012597Y008579D01*
X012457Y008579D01*
X012387Y008509D01*
X012268Y008439D02*
X012058Y008298D01*
X012268Y008158D01*
X012387Y008158D02*
X012668Y008439D01*
X012668Y008509D01*
X012668Y008158D02*
X012387Y008158D01*
X012387Y007949D02*
X012597Y007949D01*
X012668Y007879D01*
X012668Y007738D01*
X012597Y007668D01*
X012387Y007668D01*
X012338Y007598D02*
X012338Y007879D01*
X012058Y007598D01*
X012128Y007528D01*
X012268Y007528D01*
X012338Y007598D01*
X012387Y007528D02*
X012387Y007949D01*
X012338Y007879D02*
X012268Y007949D01*
X012128Y007949D01*
X012058Y007879D01*
X012058Y007598D01*
X011878Y007528D02*
X011598Y007528D01*
X011738Y007528D02*
X011738Y007949D01*
X011598Y007809D01*
X011418Y007879D02*
X011347Y007949D01*
X011137Y007949D01*
X011137Y007528D01*
X011137Y007668D02*
X011347Y007668D01*
X011418Y007738D01*
X011418Y007879D01*
X011277Y007668D02*
X011418Y007528D01*
X010878Y007598D02*
X010808Y007528D01*
X010668Y007528D01*
X010598Y007598D01*
X010418Y007528D02*
X010277Y007668D01*
X010347Y007668D02*
X010137Y007668D01*
X010137Y007528D02*
X010137Y007949D01*
X010347Y007949D01*
X010418Y007879D01*
X010418Y007738D01*
X010347Y007668D01*
X010387Y008158D02*
X010668Y008439D01*
X010668Y008509D01*
X010597Y008579D01*
X010457Y008579D01*
X010387Y008509D01*
X010268Y008439D02*
X010058Y008298D01*
X010268Y008158D01*
X010387Y008158D02*
X010668Y008158D01*
X010848Y008158D02*
X010848Y008579D01*
X010937Y008778D02*
X011437Y008778D01*
X011687Y009028D01*
X011687Y010528D01*
X011937Y010778D01*
X012437Y010778D01*
X012687Y010528D01*
X011928Y011068D02*
X011648Y011068D01*
X011928Y011349D01*
X011928Y011419D01*
X011858Y011489D01*
X011718Y011489D01*
X011648Y011419D01*
X011468Y011419D02*
X011468Y011278D01*
X011398Y011208D01*
X011188Y011208D01*
X011188Y011068D02*
X011188Y011489D01*
X011398Y011489D01*
X011468Y011419D01*
X011437Y010778D02*
X011687Y010528D01*
X011437Y010778D02*
X010937Y010778D01*
X010687Y010528D01*
X010687Y009028D01*
X010937Y008778D01*
X011058Y008439D02*
X010848Y008298D01*
X011058Y008158D01*
X011137Y008158D02*
X011418Y008158D01*
X011277Y008158D02*
X011277Y008579D01*
X011137Y008439D01*
X011598Y008509D02*
X011598Y008228D01*
X011878Y008509D01*
X011878Y008228D01*
X011808Y008158D01*
X011668Y008158D01*
X011598Y008228D01*
X011598Y008509D02*
X011668Y008579D01*
X011808Y008579D01*
X011878Y008509D01*
X012058Y008579D02*
X012058Y008158D01*
X011937Y008778D02*
X012437Y008778D01*
X012687Y009028D01*
X011937Y008778D02*
X011687Y009028D01*
X010808Y007949D02*
X010878Y007879D01*
X010878Y007809D01*
X010808Y007738D01*
X010878Y007668D01*
X010878Y007598D01*
X010808Y007738D02*
X010738Y007738D01*
X010598Y007879D02*
X010668Y007949D01*
X010808Y007949D01*
X010058Y008158D02*
X010058Y008579D01*
X009878Y008509D02*
X009878Y008228D01*
X009808Y008158D01*
X009668Y008158D01*
X009598Y008228D01*
X009878Y008509D01*
X009808Y008579D01*
X009668Y008579D01*
X009598Y008509D01*
X009598Y008228D01*
X009418Y008158D02*
X009137Y008158D01*
X009058Y008158D02*
X008848Y008298D01*
X009058Y008439D01*
X009137Y008439D02*
X009277Y008579D01*
X009277Y008158D01*
X009347Y007949D02*
X009137Y007949D01*
X009137Y007528D01*
X009137Y007668D02*
X009347Y007668D01*
X009418Y007738D01*
X009418Y007879D01*
X009347Y007949D01*
X009598Y007879D02*
X009598Y007809D01*
X009668Y007738D01*
X009878Y007738D01*
X009878Y007598D02*
X009878Y007879D01*
X009808Y007949D01*
X009668Y007949D01*
X009598Y007879D01*
X009598Y007598D02*
X009668Y007528D01*
X009808Y007528D01*
X009878Y007598D01*
X009418Y007528D02*
X009277Y007668D01*
X008878Y007528D02*
X008598Y007528D01*
X008878Y007809D01*
X008878Y007879D01*
X008808Y007949D01*
X008668Y007949D01*
X008598Y007879D01*
X008418Y007879D02*
X008347Y007949D01*
X008137Y007949D01*
X008137Y007528D01*
X008137Y007668D02*
X008347Y007668D01*
X008418Y007738D01*
X008418Y007879D01*
X008277Y007668D02*
X008418Y007528D01*
X007878Y007598D02*
X007808Y007528D01*
X007668Y007528D01*
X007598Y007598D01*
X007598Y007668D01*
X007668Y007738D01*
X007808Y007738D01*
X007878Y007668D01*
X007878Y007598D01*
X007808Y007738D02*
X007878Y007809D01*
X007878Y007879D01*
X007808Y007949D01*
X007668Y007949D01*
X007598Y007879D01*
X007598Y007809D01*
X007668Y007738D01*
X007418Y007738D02*
X007347Y007668D01*
X007137Y007668D01*
X007137Y007528D02*
X007137Y007949D01*
X007347Y007949D01*
X007418Y007879D01*
X007418Y007738D01*
X007277Y007668D02*
X007418Y007528D01*
X007418Y008158D02*
X007137Y008158D01*
X007277Y008158D02*
X007277Y008579D01*
X007137Y008439D01*
X007598Y008509D02*
X007598Y008228D01*
X007878Y008509D01*
X007878Y008228D01*
X007808Y008158D01*
X007668Y008158D01*
X007598Y008228D01*
X007598Y008509D02*
X007668Y008579D01*
X007808Y008579D01*
X007878Y008509D01*
X008058Y008579D02*
X008058Y008158D01*
X008058Y008298D02*
X008268Y008439D01*
X008387Y008509D02*
X008457Y008579D01*
X008597Y008579D01*
X008668Y008509D01*
X008668Y008439D01*
X008387Y008158D01*
X008668Y008158D01*
X008848Y008158D02*
X008848Y008579D01*
X008268Y008158D02*
X008058Y008298D01*
X008437Y006578D02*
X008437Y006478D01*
X009437Y006478D02*
X009437Y006578D01*
X010437Y006578D02*
X010437Y006478D01*
X011437Y006478D02*
X011437Y006578D01*
X012437Y006578D02*
X012437Y006478D01*
X012668Y007528D02*
X012527Y007668D01*
X012848Y007598D02*
X012918Y007528D01*
X013058Y007528D01*
X013128Y007598D01*
X013128Y007738D01*
X013058Y007809D01*
X012988Y007809D01*
X012848Y007738D01*
X012848Y007949D01*
X013128Y007949D01*
X010867Y011068D02*
X010937Y011138D01*
X010937Y011489D01*
X010867Y011489D02*
X011008Y011489D01*
X010727Y011138D02*
X010797Y011068D01*
X010867Y011068D01*
X010937Y013678D02*
X010437Y013678D01*
X010411Y013680D01*
X010385Y013685D01*
X010360Y013693D01*
X010337Y013705D01*
X010315Y013719D01*
X010296Y013737D01*
X010278Y013756D01*
X010264Y013778D01*
X010252Y013801D01*
X010244Y013826D01*
X010239Y013852D01*
X010237Y013878D01*
X010237Y015178D01*
X010189Y015189D02*
X009908Y015189D01*
X009908Y014768D01*
X009728Y014838D02*
X009658Y014768D01*
X009448Y014768D01*
X009448Y014628D02*
X009448Y015049D01*
X009658Y015049D01*
X009728Y014978D01*
X009728Y014838D01*
X009908Y014978D02*
X010049Y014978D01*
X010237Y015178D02*
X010239Y015204D01*
X010244Y015230D01*
X010252Y015255D01*
X010264Y015278D01*
X010278Y015300D01*
X010296Y015319D01*
X010315Y015337D01*
X010337Y015351D01*
X010360Y015363D01*
X010385Y015371D01*
X010411Y015376D01*
X010437Y015378D01*
X010937Y015378D01*
X010963Y015376D01*
X010989Y015371D01*
X011014Y015363D01*
X011037Y015351D01*
X011059Y015337D01*
X011078Y015319D01*
X011096Y015300D01*
X011110Y015278D01*
X011122Y015255D01*
X011130Y015230D01*
X011135Y015204D01*
X011137Y015178D01*
X011137Y013878D01*
X011135Y013852D01*
X011130Y013826D01*
X011122Y013801D01*
X011110Y013778D01*
X011096Y013756D01*
X011078Y013737D01*
X011059Y013719D01*
X011037Y013705D01*
X011014Y013693D01*
X010989Y013685D01*
X010963Y013680D01*
X010937Y013678D01*
X010987Y014398D02*
X010387Y014398D01*
X010387Y014648D02*
X010987Y014648D01*
X010018Y014289D02*
X009738Y014289D01*
X009738Y014078D01*
X009878Y014149D01*
X009948Y014149D01*
X010018Y014078D01*
X010018Y013938D01*
X009948Y013868D01*
X009808Y013868D01*
X009738Y013938D01*
X009558Y013938D02*
X009487Y013868D01*
X009347Y013868D01*
X009277Y013938D01*
X009277Y014219D01*
X009347Y014289D01*
X009487Y014289D01*
X009558Y014219D01*
X009268Y014768D02*
X008988Y014768D01*
X009268Y015049D01*
X009268Y015119D01*
X009198Y015189D01*
X009058Y015189D01*
X008988Y015119D01*
X008667Y015189D02*
X008667Y014768D01*
X008527Y014768D02*
X008808Y014768D01*
X008527Y015049D02*
X008667Y015189D01*
X009127Y016268D02*
X009057Y016338D01*
X009057Y016619D01*
X009127Y016689D01*
X009267Y016689D01*
X009337Y016619D01*
X009337Y016338D01*
X009267Y016268D01*
X009127Y016268D01*
X009197Y016408D02*
X009337Y016268D01*
X009517Y016268D02*
X009797Y016268D01*
X009657Y016268D02*
X009657Y016689D01*
X009517Y016549D01*
X009597Y017318D02*
X009527Y017388D01*
X009527Y017528D01*
X009597Y017599D01*
X009667Y017599D01*
X009947Y017318D01*
X009947Y017599D01*
X009877Y017779D02*
X009947Y017849D01*
X009947Y017989D01*
X009877Y018059D01*
X009597Y018059D01*
X009877Y017779D01*
X009597Y017779D01*
X009527Y017849D01*
X009527Y017989D01*
X009597Y018059D01*
X009527Y018239D02*
X009667Y018379D01*
X009527Y018519D01*
X009947Y018519D01*
X009947Y018699D02*
X009527Y018699D01*
X009737Y018699D02*
X009737Y018980D01*
X009667Y019160D02*
X009667Y019440D01*
X009947Y019160D01*
X009947Y019440D01*
X010287Y019128D02*
X010287Y016428D01*
X010487Y016428D02*
X010487Y019128D01*
X009947Y018980D02*
X009527Y018980D01*
X009527Y018239D02*
X009947Y018239D01*
X010287Y019128D02*
X010289Y019187D01*
X010295Y019245D01*
X010304Y019304D01*
X010318Y019361D01*
X010335Y019417D01*
X010356Y019472D01*
X010380Y019526D01*
X010408Y019578D01*
X010439Y019628D01*
X010473Y019676D01*
X010510Y019721D01*
X010551Y019764D01*
X010594Y019805D01*
X010639Y019842D01*
X010687Y019876D01*
X010737Y019907D01*
X010789Y019935D01*
X010843Y019959D01*
X010898Y019980D01*
X010954Y019997D01*
X011011Y020011D01*
X011070Y020020D01*
X011128Y020026D01*
X011187Y020028D01*
X011246Y020026D01*
X011304Y020020D01*
X011363Y020011D01*
X011420Y019997D01*
X011476Y019980D01*
X011531Y019959D01*
X011585Y019935D01*
X011637Y019907D01*
X011687Y019876D01*
X011735Y019842D01*
X011780Y019805D01*
X011823Y019764D01*
X011864Y019721D01*
X011901Y019676D01*
X011935Y019628D01*
X011966Y019578D01*
X011994Y019526D01*
X012018Y019472D01*
X012039Y019417D01*
X012056Y019361D01*
X012070Y019304D01*
X012079Y019245D01*
X012085Y019187D01*
X012087Y019128D01*
X012087Y016428D01*
X011887Y016428D02*
X011887Y019128D01*
X011885Y019180D01*
X011879Y019232D01*
X011869Y019284D01*
X011856Y019334D01*
X011839Y019384D01*
X011818Y019432D01*
X011793Y019478D01*
X011765Y019522D01*
X011734Y019564D01*
X011700Y019604D01*
X011663Y019641D01*
X011623Y019675D01*
X011581Y019706D01*
X011537Y019734D01*
X011491Y019759D01*
X011443Y019780D01*
X011393Y019797D01*
X011343Y019810D01*
X011291Y019820D01*
X011239Y019826D01*
X011187Y019828D01*
X011135Y019826D01*
X011083Y019820D01*
X011031Y019810D01*
X010981Y019797D01*
X010931Y019780D01*
X010883Y019759D01*
X010837Y019734D01*
X010793Y019706D01*
X010751Y019675D01*
X010711Y019641D01*
X010674Y019604D01*
X010640Y019564D01*
X010609Y019522D01*
X010581Y019478D01*
X010556Y019432D01*
X010535Y019384D01*
X010518Y019334D01*
X010505Y019284D01*
X010495Y019232D01*
X010489Y019180D01*
X010487Y019128D01*
X010287Y020328D02*
X011587Y020328D01*
X011613Y020330D01*
X011639Y020335D01*
X011664Y020343D01*
X011687Y020355D01*
X011709Y020369D01*
X011728Y020387D01*
X011746Y020406D01*
X011760Y020428D01*
X011772Y020451D01*
X011780Y020476D01*
X011785Y020502D01*
X011787Y020528D01*
X011787Y021028D01*
X011785Y021054D01*
X011780Y021080D01*
X011772Y021105D01*
X011760Y021128D01*
X011746Y021150D01*
X011728Y021169D01*
X011709Y021187D01*
X011687Y021201D01*
X011664Y021213D01*
X011639Y021221D01*
X011613Y021226D01*
X011587Y021228D01*
X010287Y021228D01*
X010261Y021226D01*
X010235Y021221D01*
X010210Y021213D01*
X010187Y021201D01*
X010165Y021187D01*
X010146Y021169D01*
X010128Y021150D01*
X010114Y021128D01*
X010102Y021105D01*
X010094Y021080D01*
X010089Y021054D01*
X010087Y021028D01*
X010087Y020528D01*
X009908Y020518D02*
X009908Y020939D01*
X010189Y020939D01*
X010049Y020728D02*
X009908Y020728D01*
X009728Y020728D02*
X009728Y020588D01*
X009658Y020518D01*
X009448Y020518D01*
X009448Y020378D02*
X009448Y020799D01*
X009658Y020799D01*
X009728Y020728D01*
X009268Y020799D02*
X009268Y020869D01*
X009198Y020939D01*
X009058Y020939D01*
X008988Y020869D01*
X009268Y020799D02*
X008988Y020518D01*
X009268Y020518D01*
X008808Y020518D02*
X008527Y020518D01*
X008667Y020518D02*
X008667Y020939D01*
X008527Y020799D01*
X007887Y020178D02*
X007887Y019378D01*
X007885Y019358D01*
X007879Y019340D01*
X007870Y019322D01*
X007858Y019307D01*
X007843Y019295D01*
X007825Y019286D01*
X007807Y019280D01*
X007787Y019278D01*
X005087Y019278D01*
X005067Y019280D01*
X005049Y019286D01*
X005031Y019295D01*
X005016Y019307D01*
X005004Y019322D01*
X004995Y019340D01*
X004989Y019358D01*
X004987Y019378D01*
X004987Y020178D01*
X004989Y020198D01*
X004995Y020216D01*
X005004Y020234D01*
X005016Y020249D01*
X005031Y020261D01*
X005049Y020270D01*
X005067Y020276D01*
X005087Y020278D01*
X007787Y020278D01*
X007807Y020276D01*
X007825Y020270D01*
X007843Y020261D01*
X007858Y020249D01*
X007870Y020234D01*
X007879Y020216D01*
X007885Y020198D01*
X007887Y020178D01*
X007078Y020538D02*
X007078Y020608D01*
X007008Y020678D01*
X006798Y020678D01*
X006798Y020538D01*
X006868Y020468D01*
X007008Y020468D01*
X007078Y020538D01*
X006938Y020819D02*
X006798Y020678D01*
X006938Y020819D02*
X007078Y020889D01*
X006618Y020468D02*
X006338Y020468D01*
X006478Y020468D02*
X006478Y020889D01*
X006338Y020749D01*
X006158Y020819D02*
X006087Y020889D01*
X005947Y020889D01*
X005877Y020819D01*
X005877Y020538D01*
X005947Y020468D01*
X006087Y020468D01*
X006158Y020538D01*
X006317Y020028D02*
X006317Y019778D01*
X005837Y019778D01*
X006317Y019778D02*
X006317Y019528D01*
X006567Y019528D02*
X006567Y019778D01*
X007037Y019778D01*
X006567Y019778D02*
X006567Y020028D01*
X006337Y018778D02*
X007087Y018778D01*
X007087Y010778D01*
X004787Y010778D01*
X004787Y018778D01*
X005537Y018778D01*
X005539Y018739D01*
X005545Y018700D01*
X005554Y018662D01*
X005567Y018625D01*
X005584Y018589D01*
X005604Y018556D01*
X005628Y018524D01*
X005654Y018495D01*
X005683Y018469D01*
X005715Y018445D01*
X005748Y018425D01*
X005784Y018408D01*
X005821Y018395D01*
X005859Y018386D01*
X005898Y018380D01*
X005937Y018378D01*
X005976Y018380D01*
X006015Y018386D01*
X006053Y018395D01*
X006090Y018408D01*
X006126Y018425D01*
X006159Y018445D01*
X006191Y018469D01*
X006220Y018495D01*
X006246Y018524D01*
X006270Y018556D01*
X006290Y018589D01*
X006307Y018625D01*
X006320Y018662D01*
X006329Y018700D01*
X006335Y018739D01*
X006337Y018778D01*
X006147Y017588D02*
X006147Y017308D01*
X005867Y017588D01*
X005797Y017588D01*
X005727Y017518D01*
X005727Y017378D01*
X005797Y017308D01*
X005797Y017128D02*
X005867Y017128D01*
X005937Y017058D01*
X006007Y017128D01*
X006077Y017128D01*
X006147Y017058D01*
X006147Y016917D01*
X006077Y016847D01*
X006147Y016667D02*
X006147Y016387D01*
X005867Y016667D01*
X005797Y016667D01*
X005727Y016597D01*
X005727Y016457D01*
X005797Y016387D01*
X005727Y016207D02*
X006147Y015927D01*
X006147Y015747D02*
X005867Y015747D01*
X005727Y015606D01*
X005867Y015466D01*
X006147Y015466D01*
X006147Y015286D02*
X005727Y015286D01*
X005867Y015146D01*
X005727Y015006D01*
X006147Y015006D01*
X005937Y015466D02*
X005937Y015747D01*
X005727Y015927D02*
X006147Y016207D01*
X005797Y016847D02*
X005727Y016917D01*
X005727Y017058D01*
X005797Y017128D01*
X005937Y017058D02*
X005937Y016987D01*
X004930Y018906D02*
X004930Y019326D01*
X004720Y019116D01*
X005000Y019116D01*
X004539Y019256D02*
X004469Y019326D01*
X004329Y019326D01*
X004259Y019256D01*
X004259Y018976D01*
X004329Y018906D01*
X004469Y018906D01*
X004539Y018976D01*
X004092Y018906D02*
X003952Y018906D01*
X004022Y018906D02*
X004022Y019326D01*
X003952Y019326D02*
X004092Y019326D01*
X004537Y020778D02*
X001837Y020778D01*
X001817Y020780D01*
X001799Y020786D01*
X001781Y020795D01*
X001766Y020807D01*
X001754Y020822D01*
X001745Y020840D01*
X001739Y020858D01*
X001737Y020878D01*
X001737Y021678D01*
X001739Y021698D01*
X001745Y021716D01*
X001754Y021734D01*
X001766Y021749D01*
X001781Y021761D01*
X001799Y021770D01*
X001817Y021776D01*
X001837Y021778D01*
X004537Y021778D01*
X004557Y021776D01*
X004575Y021770D01*
X004593Y021761D01*
X004608Y021749D01*
X004620Y021734D01*
X004629Y021716D01*
X004635Y021698D01*
X004637Y021678D01*
X004637Y020878D01*
X004635Y020858D01*
X004629Y020840D01*
X004620Y020822D01*
X004608Y020807D01*
X004593Y020795D01*
X004575Y020786D01*
X004557Y020780D01*
X004537Y020778D01*
X004947Y021218D02*
X005087Y021218D01*
X005158Y021288D01*
X005338Y021218D02*
X005618Y021218D01*
X005478Y021218D02*
X005478Y021639D01*
X005338Y021499D01*
X005158Y021569D02*
X005087Y021639D01*
X004947Y021639D01*
X004877Y021569D01*
X004877Y021288D01*
X004947Y021218D01*
X003787Y021278D02*
X003317Y021278D01*
X003317Y021028D01*
X003067Y021028D02*
X003067Y021278D01*
X002587Y021278D01*
X001997Y020639D02*
X001857Y020569D01*
X001717Y020428D01*
X001927Y020428D01*
X001997Y020358D01*
X001997Y020288D01*
X001927Y020218D01*
X001787Y020218D01*
X001717Y020288D01*
X001717Y020428D01*
X001537Y020288D02*
X001467Y020218D01*
X001327Y020218D01*
X001257Y020288D01*
X001257Y020569D01*
X001327Y020639D01*
X001467Y020639D01*
X001537Y020569D01*
X001727Y020069D02*
X001727Y019789D01*
X002147Y019789D01*
X002147Y019609D02*
X001867Y019609D01*
X001937Y019789D02*
X001937Y019929D01*
X002147Y019609D02*
X002147Y019399D01*
X002077Y019329D01*
X001867Y019329D01*
X002147Y019149D02*
X002147Y018868D01*
X002147Y019008D02*
X001727Y019008D01*
X001867Y018868D01*
X001927Y018139D02*
X001787Y018139D01*
X001717Y018069D01*
X001717Y017999D01*
X001787Y017928D01*
X001997Y017928D01*
X001997Y017788D02*
X001997Y018069D01*
X001927Y018139D01*
X001537Y018069D02*
X001467Y018139D01*
X001327Y018139D01*
X001257Y018069D01*
X001257Y017788D01*
X001327Y017718D01*
X001467Y017718D01*
X001537Y017788D01*
X001717Y017788D02*
X001787Y017718D01*
X001927Y017718D01*
X001997Y017788D01*
X001587Y016778D02*
X001592Y016878D01*
X001605Y016977D01*
X001628Y017075D01*
X001659Y017170D01*
X001699Y017262D01*
X001747Y017350D01*
X001803Y017433D01*
X001866Y017510D01*
X001936Y017582D01*
X002012Y017647D01*
X002094Y017705D01*
X002181Y017755D01*
X002272Y017797D01*
X002366Y017830D01*
X002463Y017855D01*
X002562Y017871D01*
X002662Y017878D01*
X002762Y017875D01*
X002862Y017864D01*
X002960Y017844D01*
X003055Y017814D01*
X003148Y017777D01*
X003237Y017731D01*
X003321Y017677D01*
X003400Y017615D01*
X003474Y017547D01*
X003540Y017472D01*
X003600Y017392D01*
X003652Y017306D01*
X003696Y017216D01*
X003732Y017123D01*
X003759Y017026D01*
X003777Y016928D01*
X003786Y016828D01*
X003786Y016728D01*
X003777Y016628D01*
X003759Y016530D01*
X003732Y016433D01*
X003696Y016340D01*
X003652Y016250D01*
X003600Y016164D01*
X003540Y016084D01*
X003474Y016009D01*
X003400Y015941D01*
X003321Y015879D01*
X003237Y015825D01*
X003148Y015779D01*
X003055Y015742D01*
X002960Y015712D01*
X002862Y015692D01*
X002762Y015681D01*
X002662Y015678D01*
X002562Y015685D01*
X002463Y015701D01*
X002366Y015726D01*
X002272Y015759D01*
X002181Y015801D01*
X002094Y015851D01*
X002012Y015909D01*
X001936Y015974D01*
X001866Y016046D01*
X001803Y016123D01*
X001747Y016206D01*
X001699Y016294D01*
X001659Y016386D01*
X001628Y016481D01*
X001605Y016579D01*
X001592Y016678D01*
X001587Y016778D01*
X001467Y015639D02*
X001327Y015639D01*
X001257Y015569D01*
X001257Y015288D01*
X001327Y015218D01*
X001467Y015218D01*
X001537Y015288D01*
X001717Y015288D02*
X001717Y015358D01*
X001787Y015428D01*
X001927Y015428D01*
X001997Y015358D01*
X001997Y015288D01*
X001927Y015218D01*
X001787Y015218D01*
X001717Y015288D01*
X001787Y015428D02*
X001717Y015499D01*
X001717Y015569D01*
X001787Y015639D01*
X001927Y015639D01*
X001997Y015569D01*
X001997Y015499D01*
X001927Y015428D01*
X001537Y015569D02*
X001467Y015639D01*
X002587Y015828D02*
X002787Y015828D01*
X002687Y015928D02*
X002687Y015728D01*
X002687Y015328D02*
X002687Y015128D01*
X002587Y015228D02*
X002787Y015228D01*
X001587Y014278D02*
X001592Y014378D01*
X001605Y014477D01*
X001628Y014575D01*
X001659Y014670D01*
X001699Y014762D01*
X001747Y014850D01*
X001803Y014933D01*
X001866Y015010D01*
X001936Y015082D01*
X002012Y015147D01*
X002094Y015205D01*
X002181Y015255D01*
X002272Y015297D01*
X002366Y015330D01*
X002463Y015355D01*
X002562Y015371D01*
X002662Y015378D01*
X002762Y015375D01*
X002862Y015364D01*
X002960Y015344D01*
X003055Y015314D01*
X003148Y015277D01*
X003237Y015231D01*
X003321Y015177D01*
X003400Y015115D01*
X003474Y015047D01*
X003540Y014972D01*
X003600Y014892D01*
X003652Y014806D01*
X003696Y014716D01*
X003732Y014623D01*
X003759Y014526D01*
X003777Y014428D01*
X003786Y014328D01*
X003786Y014228D01*
X003777Y014128D01*
X003759Y014030D01*
X003732Y013933D01*
X003696Y013840D01*
X003652Y013750D01*
X003600Y013664D01*
X003540Y013584D01*
X003474Y013509D01*
X003400Y013441D01*
X003321Y013379D01*
X003237Y013325D01*
X003148Y013279D01*
X003055Y013242D01*
X002960Y013212D01*
X002862Y013192D01*
X002762Y013181D01*
X002662Y013178D01*
X002562Y013185D01*
X002463Y013201D01*
X002366Y013226D01*
X002272Y013259D01*
X002181Y013301D01*
X002094Y013351D01*
X002012Y013409D01*
X001936Y013474D01*
X001866Y013546D01*
X001803Y013623D01*
X001747Y013706D01*
X001699Y013794D01*
X001659Y013886D01*
X001628Y013981D01*
X001605Y014079D01*
X001592Y014178D01*
X001587Y014278D01*
X001587Y011778D02*
X001592Y011878D01*
X001605Y011977D01*
X001628Y012075D01*
X001659Y012170D01*
X001699Y012262D01*
X001747Y012350D01*
X001803Y012433D01*
X001866Y012510D01*
X001936Y012582D01*
X002012Y012647D01*
X002094Y012705D01*
X002181Y012755D01*
X002272Y012797D01*
X002366Y012830D01*
X002463Y012855D01*
X002562Y012871D01*
X002662Y012878D01*
X002762Y012875D01*
X002862Y012864D01*
X002960Y012844D01*
X003055Y012814D01*
X003148Y012777D01*
X003237Y012731D01*
X003321Y012677D01*
X003400Y012615D01*
X003474Y012547D01*
X003540Y012472D01*
X003600Y012392D01*
X003652Y012306D01*
X003696Y012216D01*
X003732Y012123D01*
X003759Y012026D01*
X003777Y011928D01*
X003786Y011828D01*
X003786Y011728D01*
X003777Y011628D01*
X003759Y011530D01*
X003732Y011433D01*
X003696Y011340D01*
X003652Y011250D01*
X003600Y011164D01*
X003540Y011084D01*
X003474Y011009D01*
X003400Y010941D01*
X003321Y010879D01*
X003237Y010825D01*
X003148Y010779D01*
X003055Y010742D01*
X002960Y010712D01*
X002862Y010692D01*
X002762Y010681D01*
X002662Y010678D01*
X002562Y010685D01*
X002463Y010701D01*
X002366Y010726D01*
X002272Y010759D01*
X002181Y010801D01*
X002094Y010851D01*
X002012Y010909D01*
X001936Y010974D01*
X001866Y011046D01*
X001803Y011123D01*
X001747Y011206D01*
X001699Y011294D01*
X001659Y011386D01*
X001628Y011481D01*
X001605Y011579D01*
X001592Y011678D01*
X001587Y011778D01*
X002587Y010828D02*
X002787Y010828D01*
X002687Y010928D02*
X002687Y010728D01*
X002427Y010389D02*
X002497Y010319D01*
X002217Y010038D01*
X002287Y009968D01*
X002427Y009968D01*
X002497Y010038D01*
X002497Y010319D01*
X002427Y010389D02*
X002287Y010389D01*
X002217Y010319D01*
X002217Y010038D01*
X002037Y009968D02*
X001757Y009968D01*
X001897Y009968D02*
X001897Y010389D01*
X001757Y010249D01*
X001576Y010319D02*
X001506Y010389D01*
X001366Y010389D01*
X001296Y010319D01*
X001296Y010038D01*
X001366Y009968D01*
X001506Y009968D01*
X001576Y010038D01*
X005285Y004148D02*
X005287Y004176D01*
X005293Y004204D01*
X005303Y004231D01*
X005317Y004256D01*
X005334Y004279D01*
X005354Y004299D01*
X005377Y004316D01*
X005402Y004330D01*
X005429Y004340D01*
X005457Y004346D01*
X005485Y004348D01*
X005513Y004346D01*
X005541Y004340D01*
X005568Y004330D01*
X005593Y004316D01*
X005616Y004299D01*
X005636Y004279D01*
X005653Y004256D01*
X005667Y004231D01*
X005677Y004204D01*
X005683Y004176D01*
X005685Y004148D01*
X005683Y004120D01*
X005677Y004092D01*
X005667Y004065D01*
X005653Y004040D01*
X005636Y004017D01*
X005616Y003997D01*
X005593Y003980D01*
X005568Y003966D01*
X005541Y003956D01*
X005513Y003950D01*
X005485Y003948D01*
X005457Y003950D01*
X005429Y003956D01*
X005402Y003966D01*
X005377Y003980D01*
X005354Y003997D01*
X005334Y004017D01*
X005317Y004040D01*
X005303Y004065D01*
X005293Y004092D01*
X005287Y004120D01*
X005285Y004148D01*
X005135Y002068D02*
X004505Y002068D01*
X005835Y002068D02*
X007105Y002068D01*
X007805Y002068D02*
X009075Y002068D01*
X009775Y002068D02*
X011044Y002068D01*
X011744Y002068D02*
X012375Y002068D01*
X012473Y002068D02*
X013103Y002068D01*
X013803Y002068D02*
X015073Y002068D01*
X015773Y002068D02*
X016403Y002068D01*
X014923Y003568D02*
X014643Y003568D01*
X014923Y003849D01*
X014923Y003919D01*
X014853Y003989D01*
X014713Y003989D01*
X014643Y003919D01*
X015223Y004148D02*
X015225Y004176D01*
X015231Y004204D01*
X015241Y004231D01*
X015255Y004256D01*
X015272Y004279D01*
X015292Y004299D01*
X015315Y004316D01*
X015340Y004330D01*
X015367Y004340D01*
X015395Y004346D01*
X015423Y004348D01*
X015451Y004346D01*
X015479Y004340D01*
X015506Y004330D01*
X015531Y004316D01*
X015554Y004299D01*
X015574Y004279D01*
X015591Y004256D01*
X015605Y004231D01*
X015615Y004204D01*
X015621Y004176D01*
X015623Y004148D01*
X015621Y004120D01*
X015615Y004092D01*
X015605Y004065D01*
X015591Y004040D01*
X015574Y004017D01*
X015554Y003997D01*
X015531Y003980D01*
X015506Y003966D01*
X015479Y003956D01*
X015451Y003950D01*
X015423Y003948D01*
X015395Y003950D01*
X015367Y003956D01*
X015340Y003966D01*
X015315Y003980D01*
X015292Y003997D01*
X015272Y004017D01*
X015255Y004040D01*
X015241Y004065D01*
X015231Y004092D01*
X015225Y004120D01*
X015223Y004148D01*
X013253Y004148D02*
X013255Y004176D01*
X013261Y004204D01*
X013271Y004231D01*
X013285Y004256D01*
X013302Y004279D01*
X013322Y004299D01*
X013345Y004316D01*
X013370Y004330D01*
X013397Y004340D01*
X013425Y004346D01*
X013453Y004348D01*
X013481Y004346D01*
X013509Y004340D01*
X013536Y004330D01*
X013561Y004316D01*
X013584Y004299D01*
X013604Y004279D01*
X013621Y004256D01*
X013635Y004231D01*
X013645Y004204D01*
X013651Y004176D01*
X013653Y004148D01*
X013651Y004120D01*
X013645Y004092D01*
X013635Y004065D01*
X013621Y004040D01*
X013604Y004017D01*
X013584Y003997D01*
X013561Y003980D01*
X013536Y003966D01*
X013509Y003956D01*
X013481Y003950D01*
X013453Y003948D01*
X013425Y003950D01*
X013397Y003956D01*
X013370Y003966D01*
X013345Y003980D01*
X013322Y003997D01*
X013302Y004017D01*
X013285Y004040D01*
X013271Y004065D01*
X013261Y004092D01*
X013255Y004120D01*
X013253Y004148D01*
X012833Y003989D02*
X012833Y003568D01*
X012693Y003568D02*
X012973Y003568D01*
X012693Y003849D02*
X012833Y003989D01*
X011195Y004148D02*
X011197Y004176D01*
X011203Y004204D01*
X011213Y004231D01*
X011227Y004256D01*
X011244Y004279D01*
X011264Y004299D01*
X011287Y004316D01*
X011312Y004330D01*
X011339Y004340D01*
X011367Y004346D01*
X011395Y004348D01*
X011423Y004346D01*
X011451Y004340D01*
X011478Y004330D01*
X011503Y004316D01*
X011526Y004299D01*
X011546Y004279D01*
X011563Y004256D01*
X011577Y004231D01*
X011587Y004204D01*
X011593Y004176D01*
X011595Y004148D01*
X011593Y004120D01*
X011587Y004092D01*
X011577Y004065D01*
X011563Y004040D01*
X011546Y004017D01*
X011526Y003997D01*
X011503Y003980D01*
X011478Y003966D01*
X011451Y003956D01*
X011423Y003950D01*
X011395Y003948D01*
X011367Y003950D01*
X011339Y003956D01*
X011312Y003966D01*
X011287Y003980D01*
X011264Y003997D01*
X011244Y004017D01*
X011227Y004040D01*
X011213Y004065D01*
X011203Y004092D01*
X011197Y004120D01*
X011195Y004148D01*
X009225Y004148D02*
X009227Y004176D01*
X009233Y004204D01*
X009243Y004231D01*
X009257Y004256D01*
X009274Y004279D01*
X009294Y004299D01*
X009317Y004316D01*
X009342Y004330D01*
X009369Y004340D01*
X009397Y004346D01*
X009425Y004348D01*
X009453Y004346D01*
X009481Y004340D01*
X009508Y004330D01*
X009533Y004316D01*
X009556Y004299D01*
X009576Y004279D01*
X009593Y004256D01*
X009607Y004231D01*
X009617Y004204D01*
X009623Y004176D01*
X009625Y004148D01*
X009623Y004120D01*
X009617Y004092D01*
X009607Y004065D01*
X009593Y004040D01*
X009576Y004017D01*
X009556Y003997D01*
X009533Y003980D01*
X009508Y003966D01*
X009481Y003956D01*
X009453Y003950D01*
X009425Y003948D01*
X009397Y003950D01*
X009369Y003956D01*
X009342Y003966D01*
X009317Y003980D01*
X009294Y003997D01*
X009274Y004017D01*
X009257Y004040D01*
X009243Y004065D01*
X009233Y004092D01*
X009227Y004120D01*
X009225Y004148D01*
X007255Y004148D02*
X007257Y004176D01*
X007263Y004204D01*
X007273Y004231D01*
X007287Y004256D01*
X007304Y004279D01*
X007324Y004299D01*
X007347Y004316D01*
X007372Y004330D01*
X007399Y004340D01*
X007427Y004346D01*
X007455Y004348D01*
X007483Y004346D01*
X007511Y004340D01*
X007538Y004330D01*
X007563Y004316D01*
X007586Y004299D01*
X007606Y004279D01*
X007623Y004256D01*
X007637Y004231D01*
X007647Y004204D01*
X007653Y004176D01*
X007655Y004148D01*
X007653Y004120D01*
X007647Y004092D01*
X007637Y004065D01*
X007623Y004040D01*
X007606Y004017D01*
X007586Y003997D01*
X007563Y003980D01*
X007538Y003966D01*
X007511Y003956D01*
X007483Y003950D01*
X007455Y003948D01*
X007427Y003950D01*
X007399Y003956D01*
X007372Y003966D01*
X007347Y003980D01*
X007324Y003997D01*
X007304Y004017D01*
X007287Y004040D01*
X007273Y004065D01*
X007263Y004092D01*
X007257Y004120D01*
X007255Y004148D01*
X007437Y006478D02*
X007437Y006578D01*
X002307Y002528D02*
X002310Y002585D01*
X002317Y002642D01*
X002330Y002698D01*
X002348Y002752D01*
X002371Y002805D01*
X002399Y002855D01*
X002431Y002903D01*
X002467Y002947D01*
X002507Y002988D01*
X002551Y003026D01*
X002597Y003059D01*
X002647Y003087D01*
X002699Y003111D01*
X002753Y003131D01*
X002809Y003145D01*
X002865Y003154D01*
X002923Y003158D01*
X002980Y003157D01*
X003037Y003150D01*
X003093Y003138D01*
X003148Y003122D01*
X003201Y003100D01*
X003252Y003074D01*
X003300Y003043D01*
X003346Y003008D01*
X003388Y002968D01*
X003426Y002926D01*
X003460Y002879D01*
X003490Y002830D01*
X003515Y002779D01*
X003535Y002725D01*
X003551Y002670D01*
X003561Y002614D01*
X003566Y002557D01*
X003566Y002499D01*
X003561Y002442D01*
X003551Y002386D01*
X003535Y002331D01*
X003515Y002277D01*
X003490Y002226D01*
X003460Y002177D01*
X003426Y002130D01*
X003388Y002088D01*
X003346Y002048D01*
X003300Y002013D01*
X003252Y001982D01*
X003201Y001956D01*
X003148Y001934D01*
X003093Y001918D01*
X003037Y001906D01*
X002980Y001899D01*
X002923Y001898D01*
X002865Y001902D01*
X002809Y001911D01*
X002753Y001925D01*
X002699Y001945D01*
X002647Y001969D01*
X002597Y001997D01*
X002551Y002030D01*
X002507Y002068D01*
X002467Y002109D01*
X002431Y002153D01*
X002399Y002201D01*
X002371Y002251D01*
X002348Y002304D01*
X002330Y002358D01*
X002317Y002414D01*
X002310Y002471D01*
X002307Y002528D01*
X001587Y002528D02*
X001593Y002651D01*
X001609Y002773D01*
X001637Y002892D01*
X001676Y003009D01*
X001725Y003122D01*
X001784Y003229D01*
X001852Y003331D01*
X001930Y003427D01*
X002016Y003515D01*
X002109Y003594D01*
X002209Y003665D01*
X002316Y003727D01*
X002427Y003778D01*
X002543Y003819D01*
X002662Y003850D01*
X002784Y003869D01*
X002906Y003878D01*
X003029Y003875D01*
X003151Y003861D01*
X003272Y003836D01*
X003389Y003800D01*
X003503Y003754D01*
X003612Y003697D01*
X003716Y003631D01*
X003813Y003556D01*
X003902Y003472D01*
X003984Y003380D01*
X004057Y003281D01*
X004121Y003176D01*
X004175Y003066D01*
X004219Y002951D01*
X004252Y002833D01*
X004274Y002712D01*
X004286Y002589D01*
X004286Y002467D01*
X004274Y002344D01*
X004252Y002223D01*
X004219Y002105D01*
X004175Y001990D01*
X004121Y001880D01*
X004057Y001775D01*
X003984Y001676D01*
X003902Y001584D01*
X003813Y001500D01*
X003716Y001425D01*
X003612Y001359D01*
X003503Y001302D01*
X003389Y001256D01*
X003272Y001220D01*
X003151Y001195D01*
X003029Y001181D01*
X002906Y001178D01*
X002784Y001187D01*
X002662Y001206D01*
X002543Y001237D01*
X002427Y001278D01*
X002316Y001329D01*
X002209Y001391D01*
X002109Y001462D01*
X002016Y001541D01*
X001930Y001629D01*
X001852Y001725D01*
X001784Y001827D01*
X001725Y001934D01*
X001676Y002047D01*
X001637Y002164D01*
X001609Y002283D01*
X001593Y002405D01*
X001587Y002528D01*
X010487Y016428D02*
X010489Y016376D01*
X010495Y016324D01*
X010505Y016272D01*
X010518Y016222D01*
X010535Y016172D01*
X010556Y016124D01*
X010581Y016078D01*
X010609Y016034D01*
X010640Y015992D01*
X010674Y015952D01*
X010711Y015915D01*
X010751Y015881D01*
X010793Y015850D01*
X010837Y015822D01*
X010883Y015797D01*
X010931Y015776D01*
X010981Y015759D01*
X011031Y015746D01*
X011083Y015736D01*
X011135Y015730D01*
X011187Y015728D01*
X011239Y015730D01*
X011291Y015736D01*
X011343Y015746D01*
X011393Y015759D01*
X011443Y015776D01*
X011491Y015797D01*
X011537Y015822D01*
X011581Y015850D01*
X011623Y015881D01*
X011663Y015915D01*
X011700Y015952D01*
X011734Y015992D01*
X011765Y016034D01*
X011793Y016078D01*
X011818Y016124D01*
X011839Y016172D01*
X011856Y016222D01*
X011869Y016272D01*
X011879Y016324D01*
X011885Y016376D01*
X011887Y016428D01*
X012087Y016428D02*
X012085Y016369D01*
X012079Y016311D01*
X012070Y016252D01*
X012056Y016195D01*
X012039Y016139D01*
X012018Y016084D01*
X011994Y016030D01*
X011966Y015978D01*
X011935Y015928D01*
X011901Y015880D01*
X011864Y015835D01*
X011823Y015792D01*
X011780Y015751D01*
X011735Y015714D01*
X011687Y015680D01*
X011637Y015649D01*
X011585Y015621D01*
X011531Y015597D01*
X011476Y015576D01*
X011420Y015559D01*
X011363Y015545D01*
X011304Y015536D01*
X011246Y015530D01*
X011187Y015528D01*
X011128Y015530D01*
X011070Y015536D01*
X011011Y015545D01*
X010954Y015559D01*
X010898Y015576D01*
X010843Y015597D01*
X010789Y015621D01*
X010737Y015649D01*
X010687Y015680D01*
X010639Y015714D01*
X010594Y015751D01*
X010551Y015792D01*
X010510Y015835D01*
X010473Y015880D01*
X010439Y015928D01*
X010408Y015978D01*
X010380Y016030D01*
X010356Y016084D01*
X010335Y016139D01*
X010318Y016195D01*
X010304Y016252D01*
X010295Y016311D01*
X010289Y016369D01*
X010287Y016428D01*
X010817Y020478D02*
X010817Y021078D01*
X011067Y021078D02*
X011067Y020478D01*
X010287Y020328D02*
X010261Y020330D01*
X010235Y020335D01*
X010210Y020343D01*
X010187Y020355D01*
X010165Y020369D01*
X010146Y020387D01*
X010128Y020406D01*
X010114Y020428D01*
X010102Y020451D01*
X010094Y020476D01*
X010089Y020502D01*
X010087Y020528D01*
X010347Y021618D02*
X010487Y021618D01*
X010558Y021688D01*
X010347Y021618D02*
X010277Y021688D01*
X010277Y021969D01*
X010347Y022039D01*
X010487Y022039D01*
X010558Y021969D01*
X010738Y021828D02*
X011018Y021828D01*
X010948Y021618D02*
X010948Y022039D01*
X010738Y021828D01*
X009352Y026693D02*
X009212Y026693D01*
X009142Y026763D01*
X009142Y026903D02*
X009282Y026974D01*
X009352Y026974D01*
X009422Y026903D01*
X009422Y026763D01*
X009352Y026693D01*
X009142Y026903D02*
X009142Y027114D01*
X009422Y027114D01*
X008962Y027114D02*
X008962Y027044D01*
X008681Y026763D01*
X008681Y026693D01*
X008501Y026693D02*
X008501Y027114D01*
X008361Y026974D01*
X008221Y027114D01*
X008221Y026693D01*
X008041Y026693D02*
X007761Y026693D01*
X007761Y027114D01*
X007187Y027778D02*
X007437Y028028D01*
X007437Y029528D01*
X007187Y029778D01*
X006687Y029778D01*
X006437Y029528D01*
X006187Y029778D01*
X005687Y029778D01*
X005437Y029528D01*
X005187Y029778D01*
X004687Y029778D01*
X004437Y029528D01*
X004437Y028028D01*
X004687Y027778D01*
X005187Y027778D01*
X005437Y028028D01*
X005687Y027778D01*
X006187Y027778D01*
X006437Y028028D01*
X006687Y027778D01*
X007187Y027778D01*
X008681Y027114D02*
X008962Y027114D01*
X005247Y026139D02*
X005177Y026139D01*
X004897Y026419D01*
X004827Y026419D01*
X004827Y026139D01*
X004827Y025819D02*
X005247Y025819D01*
X005247Y025679D02*
X005247Y025959D01*
X005177Y025499D02*
X005247Y025428D01*
X005247Y025288D01*
X005177Y025218D01*
X004897Y025218D01*
X004827Y025288D01*
X004827Y025428D01*
X004897Y025499D01*
X004967Y025679D02*
X004827Y025819D01*
X004437Y025898D02*
X004187Y025898D01*
X004187Y025428D01*
X004187Y025898D02*
X003937Y025898D01*
X003937Y026148D02*
X004187Y026148D01*
X004187Y026628D01*
X004187Y026148D02*
X004437Y026148D01*
X003959Y027068D02*
X003679Y027068D01*
X003679Y027138D01*
X003959Y027419D01*
X003959Y027489D01*
X003679Y027489D01*
X003787Y027478D02*
X004587Y027478D01*
X004607Y027476D01*
X004625Y027470D01*
X004643Y027461D01*
X004658Y027449D01*
X004670Y027434D01*
X004679Y027416D01*
X004685Y027398D01*
X004687Y027378D01*
X004687Y024678D01*
X004685Y024658D01*
X004679Y024640D01*
X004670Y024622D01*
X004658Y024607D01*
X004643Y024595D01*
X004625Y024586D01*
X004607Y024580D01*
X004587Y024578D01*
X003787Y024578D01*
X003767Y024580D01*
X003749Y024586D01*
X003731Y024595D01*
X003716Y024607D01*
X003704Y024622D01*
X003695Y024640D01*
X003689Y024658D01*
X003687Y024678D01*
X003687Y027378D01*
X003689Y027398D01*
X003695Y027416D01*
X003704Y027434D01*
X003716Y027449D01*
X003731Y027461D01*
X003749Y027470D01*
X003767Y027476D01*
X003787Y027478D01*
X003499Y027489D02*
X003219Y027489D01*
X003219Y027278D01*
X003359Y027349D01*
X003429Y027349D01*
X003499Y027278D01*
X003499Y027138D01*
X003429Y027068D01*
X003289Y027068D01*
X003219Y027138D01*
X003039Y027138D02*
X002969Y027068D01*
X002828Y027068D01*
X002758Y027138D01*
X003039Y027419D01*
X003039Y027138D01*
X003039Y027419D02*
X002969Y027489D01*
X002828Y027489D01*
X002758Y027419D01*
X002758Y027138D01*
X002578Y027068D02*
X002298Y027068D01*
X002298Y027489D01*
X002118Y027419D02*
X002118Y027349D01*
X002048Y027278D01*
X001908Y027278D01*
X001838Y027349D01*
X001838Y027419D01*
X001908Y027489D01*
X002048Y027489D01*
X002118Y027419D01*
X002048Y027278D02*
X002118Y027208D01*
X002118Y027138D01*
X002048Y027068D01*
X001908Y027068D01*
X001838Y027138D01*
X001838Y027208D01*
X001908Y027278D01*
X001658Y027419D02*
X001377Y027138D01*
X001377Y027068D01*
X001377Y027489D02*
X001658Y027489D01*
X001658Y027419D01*
X001787Y026603D02*
X001787Y024953D01*
X001577Y025268D02*
X001577Y025408D01*
X001577Y025338D02*
X001997Y025338D01*
X001997Y025268D02*
X001997Y025408D01*
X001927Y025575D02*
X001997Y025645D01*
X001997Y025785D01*
X001927Y025855D01*
X001997Y026036D02*
X001717Y026316D01*
X001647Y026316D01*
X001577Y026246D01*
X001577Y026106D01*
X001647Y026036D01*
X001647Y025855D02*
X001577Y025785D01*
X001577Y025645D01*
X001647Y025575D01*
X001927Y025575D01*
X001997Y026036D02*
X001997Y026316D01*
X002337Y026666D02*
X002337Y026824D01*
X002337Y025891D02*
X002337Y025666D01*
X001787Y024953D02*
X001838Y024916D01*
X001891Y024881D01*
X001947Y024849D01*
X002004Y024821D01*
X002063Y024797D01*
X002123Y024776D01*
X002184Y024759D01*
X002246Y024745D01*
X002309Y024736D01*
X002372Y024730D01*
X002436Y024728D01*
X002500Y024730D01*
X002563Y024736D01*
X002626Y024745D01*
X002688Y024758D01*
X002749Y024776D01*
X002809Y024796D01*
X002868Y024821D01*
X002925Y024848D01*
X002981Y024880D01*
X003034Y024914D01*
X003085Y024952D01*
X003134Y024993D01*
X003180Y025037D01*
X003224Y025083D01*
X003265Y025132D01*
X003302Y025183D01*
X003337Y025237D01*
X003368Y025292D01*
X003396Y025349D01*
X003420Y025408D01*
X003440Y025468D01*
X003440Y026088D02*
X003420Y026148D01*
X003396Y026207D01*
X003368Y026264D01*
X003337Y026319D01*
X003302Y026373D01*
X003265Y026424D01*
X003224Y026473D01*
X003180Y026519D01*
X003134Y026563D01*
X003085Y026604D01*
X003034Y026642D01*
X002981Y026676D01*
X002925Y026708D01*
X002868Y026735D01*
X002809Y026760D01*
X002749Y026780D01*
X002688Y026798D01*
X002626Y026811D01*
X002563Y026820D01*
X002500Y026826D01*
X002436Y026828D01*
X002372Y026826D01*
X002309Y026820D01*
X002246Y026811D01*
X002184Y026797D01*
X002123Y026780D01*
X002063Y026759D01*
X002004Y026735D01*
X001947Y026707D01*
X001891Y026675D01*
X001838Y026640D01*
X001787Y026603D01*
X002337Y024891D02*
X002337Y024733D01*
X002387Y024239D02*
X002247Y024239D01*
X002177Y024169D01*
X002317Y024028D02*
X002387Y024028D01*
X002458Y023958D01*
X002458Y023888D01*
X002387Y023818D01*
X002247Y023818D01*
X002177Y023888D01*
X002387Y024028D02*
X002458Y024099D01*
X002458Y024169D01*
X002387Y024239D01*
X002638Y024169D02*
X002708Y024239D01*
X002848Y024239D01*
X002918Y024169D01*
X002918Y024099D01*
X002848Y024028D01*
X002918Y023958D01*
X002918Y023888D01*
X002848Y023818D01*
X002708Y023818D01*
X002638Y023888D01*
X002778Y024028D02*
X002848Y024028D01*
X003098Y024099D02*
X003098Y023888D01*
X003168Y023818D01*
X003378Y023818D01*
X003378Y024099D01*
X003558Y024028D02*
X003699Y024028D01*
X003558Y023818D02*
X003558Y024239D01*
X003839Y024239D01*
X004177Y024219D02*
X004177Y023938D01*
X004247Y023868D01*
X004387Y023868D01*
X004458Y023938D01*
X004638Y023938D02*
X004708Y023868D01*
X004848Y023868D01*
X004918Y023938D01*
X004918Y024008D01*
X004848Y024078D01*
X004778Y024078D01*
X004848Y024078D02*
X004918Y024149D01*
X004918Y024219D01*
X004848Y024289D01*
X004708Y024289D01*
X004638Y024219D01*
X004458Y024219D02*
X004387Y024289D01*
X004247Y024289D01*
X004177Y024219D01*
X001587Y023278D02*
X001593Y023401D01*
X001609Y023523D01*
X001637Y023642D01*
X001676Y023759D01*
X001725Y023872D01*
X001784Y023979D01*
X001852Y024081D01*
X001930Y024177D01*
X002016Y024265D01*
X002109Y024344D01*
X002209Y024415D01*
X002316Y024477D01*
X002427Y024528D01*
X002543Y024569D01*
X002662Y024600D01*
X002784Y024619D01*
X002906Y024628D01*
X003029Y024625D01*
X003151Y024611D01*
X003272Y024586D01*
X003389Y024550D01*
X003503Y024504D01*
X003612Y024447D01*
X003716Y024381D01*
X003813Y024306D01*
X003902Y024222D01*
X003984Y024130D01*
X004057Y024031D01*
X004121Y023926D01*
X004175Y023816D01*
X004219Y023701D01*
X004252Y023583D01*
X004274Y023462D01*
X004286Y023339D01*
X004286Y023217D01*
X004274Y023094D01*
X004252Y022973D01*
X004219Y022855D01*
X004175Y022740D01*
X004121Y022630D01*
X004057Y022525D01*
X003984Y022426D01*
X003902Y022334D01*
X003813Y022250D01*
X003716Y022175D01*
X003612Y022109D01*
X003503Y022052D01*
X003389Y022006D01*
X003272Y021970D01*
X003151Y021945D01*
X003029Y021931D01*
X002906Y021928D01*
X002784Y021937D01*
X002662Y021956D01*
X002543Y021987D01*
X002427Y022028D01*
X002316Y022079D01*
X002209Y022141D01*
X002109Y022212D01*
X002016Y022291D01*
X001930Y022379D01*
X001852Y022475D01*
X001784Y022577D01*
X001725Y022684D01*
X001676Y022797D01*
X001637Y022914D01*
X001609Y023033D01*
X001593Y023155D01*
X001587Y023278D01*
X001737Y023278D02*
X002037Y023278D01*
X001887Y023128D02*
X001887Y023428D01*
X003067Y021528D02*
X003067Y021278D01*
X003317Y021278D02*
X003317Y021528D01*
X002687Y020328D02*
X002687Y020128D01*
X002587Y020228D02*
X002787Y020228D01*
X001587Y019278D02*
X001592Y019378D01*
X001605Y019477D01*
X001628Y019575D01*
X001659Y019670D01*
X001699Y019762D01*
X001747Y019850D01*
X001803Y019933D01*
X001866Y020010D01*
X001936Y020082D01*
X002012Y020147D01*
X002094Y020205D01*
X002181Y020255D01*
X002272Y020297D01*
X002366Y020330D01*
X002463Y020355D01*
X002562Y020371D01*
X002662Y020378D01*
X002762Y020375D01*
X002862Y020364D01*
X002960Y020344D01*
X003055Y020314D01*
X003148Y020277D01*
X003237Y020231D01*
X003321Y020177D01*
X003400Y020115D01*
X003474Y020047D01*
X003540Y019972D01*
X003600Y019892D01*
X003652Y019806D01*
X003696Y019716D01*
X003732Y019623D01*
X003759Y019526D01*
X003777Y019428D01*
X003786Y019328D01*
X003786Y019228D01*
X003777Y019128D01*
X003759Y019030D01*
X003732Y018933D01*
X003696Y018840D01*
X003652Y018750D01*
X003600Y018664D01*
X003540Y018584D01*
X003474Y018509D01*
X003400Y018441D01*
X003321Y018379D01*
X003237Y018325D01*
X003148Y018279D01*
X003055Y018242D01*
X002960Y018212D01*
X002862Y018192D01*
X002762Y018181D01*
X002662Y018178D01*
X002562Y018185D01*
X002463Y018201D01*
X002366Y018226D01*
X002272Y018259D01*
X002181Y018301D01*
X002094Y018351D01*
X002012Y018409D01*
X001936Y018474D01*
X001866Y018546D01*
X001803Y018623D01*
X001747Y018706D01*
X001699Y018794D01*
X001659Y018886D01*
X001628Y018981D01*
X001605Y019079D01*
X001592Y019178D01*
X001587Y019278D01*
X002307Y029278D02*
X002310Y029335D01*
X002317Y029392D01*
X002330Y029448D01*
X002348Y029502D01*
X002371Y029555D01*
X002399Y029605D01*
X002431Y029653D01*
X002467Y029697D01*
X002507Y029738D01*
X002551Y029776D01*
X002597Y029809D01*
X002647Y029837D01*
X002699Y029861D01*
X002753Y029881D01*
X002809Y029895D01*
X002865Y029904D01*
X002923Y029908D01*
X002980Y029907D01*
X003037Y029900D01*
X003093Y029888D01*
X003148Y029872D01*
X003201Y029850D01*
X003252Y029824D01*
X003300Y029793D01*
X003346Y029758D01*
X003388Y029718D01*
X003426Y029676D01*
X003460Y029629D01*
X003490Y029580D01*
X003515Y029529D01*
X003535Y029475D01*
X003551Y029420D01*
X003561Y029364D01*
X003566Y029307D01*
X003566Y029249D01*
X003561Y029192D01*
X003551Y029136D01*
X003535Y029081D01*
X003515Y029027D01*
X003490Y028976D01*
X003460Y028927D01*
X003426Y028880D01*
X003388Y028838D01*
X003346Y028798D01*
X003300Y028763D01*
X003252Y028732D01*
X003201Y028706D01*
X003148Y028684D01*
X003093Y028668D01*
X003037Y028656D01*
X002980Y028649D01*
X002923Y028648D01*
X002865Y028652D01*
X002809Y028661D01*
X002753Y028675D01*
X002699Y028695D01*
X002647Y028719D01*
X002597Y028747D01*
X002551Y028780D01*
X002507Y028818D01*
X002467Y028859D01*
X002431Y028903D01*
X002399Y028951D01*
X002371Y029001D01*
X002348Y029054D01*
X002330Y029108D01*
X002317Y029164D01*
X002310Y029221D01*
X002307Y029278D01*
X001587Y029278D02*
X001593Y029401D01*
X001609Y029523D01*
X001637Y029642D01*
X001676Y029759D01*
X001725Y029872D01*
X001784Y029979D01*
X001852Y030081D01*
X001930Y030177D01*
X002016Y030265D01*
X002109Y030344D01*
X002209Y030415D01*
X002316Y030477D01*
X002427Y030528D01*
X002543Y030569D01*
X002662Y030600D01*
X002784Y030619D01*
X002906Y030628D01*
X003029Y030625D01*
X003151Y030611D01*
X003272Y030586D01*
X003389Y030550D01*
X003503Y030504D01*
X003612Y030447D01*
X003716Y030381D01*
X003813Y030306D01*
X003902Y030222D01*
X003984Y030130D01*
X004057Y030031D01*
X004121Y029926D01*
X004175Y029816D01*
X004219Y029701D01*
X004252Y029583D01*
X004274Y029462D01*
X004286Y029339D01*
X004286Y029217D01*
X004274Y029094D01*
X004252Y028973D01*
X004219Y028855D01*
X004175Y028740D01*
X004121Y028630D01*
X004057Y028525D01*
X003984Y028426D01*
X003902Y028334D01*
X003813Y028250D01*
X003716Y028175D01*
X003612Y028109D01*
X003503Y028052D01*
X003389Y028006D01*
X003272Y027970D01*
X003151Y027945D01*
X003029Y027931D01*
X002906Y027928D01*
X002784Y027937D01*
X002662Y027956D01*
X002543Y027987D01*
X002427Y028028D01*
X002316Y028079D01*
X002209Y028141D01*
X002109Y028212D01*
X002016Y028291D01*
X001930Y028379D01*
X001852Y028475D01*
X001784Y028577D01*
X001725Y028684D01*
X001676Y028797D01*
X001637Y028914D01*
X001609Y029033D01*
X001593Y029155D01*
X001587Y029278D01*
X013337Y026578D02*
X013337Y011978D01*
X015537Y011978D01*
X015537Y026578D01*
X014687Y026578D01*
X014685Y026547D01*
X014679Y026516D01*
X014669Y026486D01*
X014656Y026458D01*
X014639Y026431D01*
X014619Y026407D01*
X014596Y026385D01*
X014571Y026367D01*
X014543Y026352D01*
X014514Y026340D01*
X014484Y026332D01*
X014453Y026328D01*
X014421Y026328D01*
X014390Y026332D01*
X014360Y026340D01*
X014331Y026352D01*
X014303Y026367D01*
X014278Y026385D01*
X014255Y026407D01*
X014235Y026431D01*
X014218Y026458D01*
X014205Y026486D01*
X014195Y026516D01*
X014189Y026547D01*
X014187Y026578D01*
X013337Y026578D01*
X013477Y026878D02*
X013684Y026878D01*
X013581Y026878D02*
X013581Y027499D01*
X013684Y027499D02*
X013477Y027499D01*
X013907Y027395D02*
X013907Y026982D01*
X014010Y026878D01*
X014217Y026878D01*
X014321Y026982D01*
X014552Y026878D02*
X014965Y026878D01*
X014758Y026878D02*
X014758Y027499D01*
X014552Y027292D01*
X014321Y027395D02*
X014217Y027499D01*
X014010Y027499D01*
X013907Y027395D01*
X014330Y025337D02*
X014227Y025234D01*
X014227Y024923D01*
X014847Y024923D01*
X014641Y024923D02*
X014641Y025234D01*
X014537Y025337D01*
X014330Y025337D01*
X014330Y024693D02*
X014227Y024589D01*
X014227Y024382D01*
X014330Y024279D01*
X014744Y024279D01*
X014330Y024693D01*
X014744Y024693D01*
X014847Y024589D01*
X014847Y024382D01*
X014744Y024279D01*
X014847Y024048D02*
X014847Y023634D01*
X014434Y024048D01*
X014330Y024048D01*
X014227Y023945D01*
X014227Y023738D01*
X014330Y023634D01*
X014537Y023404D02*
X014537Y022990D01*
X014434Y022759D02*
X014537Y022656D01*
X014537Y022449D01*
X014434Y022345D01*
X014330Y022345D01*
X014227Y022449D01*
X014227Y022656D01*
X014330Y022759D01*
X014434Y022759D01*
X014537Y022656D02*
X014641Y022759D01*
X014744Y022759D01*
X014847Y022656D01*
X014847Y022449D01*
X014744Y022345D01*
X014641Y022345D01*
X014537Y022449D01*
X014434Y022114D02*
X014537Y022011D01*
X014537Y021804D01*
X014434Y021701D01*
X014330Y021701D01*
X014227Y021804D01*
X014227Y022011D01*
X014330Y022114D01*
X014434Y022114D01*
X014537Y022011D02*
X014641Y022114D01*
X014744Y022114D01*
X014847Y022011D01*
X014847Y021804D01*
X014744Y021701D01*
X014641Y021701D01*
X014537Y021804D01*
X014537Y021470D02*
X014537Y021056D01*
X014434Y021056D02*
X014227Y021263D01*
X014434Y021470D01*
X014847Y021470D01*
X014847Y021056D02*
X014434Y021056D01*
X014537Y020825D02*
X014537Y020619D01*
X014537Y020825D02*
X014744Y020825D01*
X014847Y020722D01*
X014847Y020515D01*
X014744Y020412D01*
X014330Y020412D01*
X014227Y020515D01*
X014227Y020722D01*
X014330Y020825D01*
X014227Y020181D02*
X014227Y019767D01*
X014847Y019767D01*
X014847Y020181D01*
X014537Y019974D02*
X014537Y019767D01*
X014227Y019536D02*
X014847Y019536D01*
X014847Y019123D02*
X014227Y019123D01*
X014434Y019330D01*
X014227Y019536D01*
X014227Y018892D02*
X014227Y018478D01*
X014227Y018685D02*
X014847Y018685D01*
X014847Y018247D02*
X014434Y018247D01*
X014227Y018040D01*
X014434Y017834D01*
X014847Y017834D01*
X014537Y017834D02*
X014537Y018247D01*
X016436Y020358D02*
X016436Y020779D01*
X016646Y020779D01*
X016716Y020709D01*
X016716Y020568D01*
X016646Y020498D01*
X016436Y020498D01*
X016576Y020498D02*
X016716Y020358D01*
X016787Y020228D02*
X017587Y020228D01*
X017607Y020226D01*
X017625Y020220D01*
X017643Y020211D01*
X017658Y020199D01*
X017670Y020184D01*
X017679Y020166D01*
X017685Y020148D01*
X017687Y020128D01*
X017687Y017428D01*
X017685Y017408D01*
X017679Y017390D01*
X017670Y017372D01*
X017658Y017357D01*
X017643Y017345D01*
X017625Y017336D01*
X017607Y017330D01*
X017587Y017328D01*
X016787Y017328D01*
X016767Y017330D01*
X016749Y017336D01*
X016731Y017345D01*
X016716Y017357D01*
X016704Y017372D01*
X016695Y017390D01*
X016689Y017408D01*
X016687Y017428D01*
X016687Y020128D01*
X016689Y020148D01*
X016695Y020166D01*
X016704Y020184D01*
X016716Y020199D01*
X016731Y020211D01*
X016749Y020220D01*
X016767Y020226D01*
X016787Y020228D01*
X016897Y020358D02*
X017177Y020358D01*
X017037Y020358D02*
X017037Y020779D01*
X016897Y020639D01*
X017357Y020709D02*
X017427Y020779D01*
X017567Y020779D01*
X017637Y020709D01*
X017637Y020639D01*
X017357Y020358D01*
X017637Y020358D01*
X017937Y020128D02*
X017937Y017428D01*
X017939Y017408D01*
X017945Y017390D01*
X017954Y017372D01*
X017966Y017357D01*
X017981Y017345D01*
X017999Y017336D01*
X018017Y017330D01*
X018037Y017328D01*
X018837Y017328D01*
X018857Y017330D01*
X018875Y017336D01*
X018893Y017345D01*
X018908Y017357D01*
X018920Y017372D01*
X018929Y017390D01*
X018935Y017408D01*
X018937Y017428D01*
X018937Y020128D01*
X018935Y020148D01*
X018929Y020166D01*
X018920Y020184D01*
X018908Y020199D01*
X018893Y020211D01*
X018875Y020220D01*
X018857Y020226D01*
X018837Y020228D01*
X018037Y020228D01*
X018017Y020226D01*
X017999Y020220D01*
X017981Y020211D01*
X017966Y020199D01*
X017954Y020184D01*
X017945Y020166D01*
X017939Y020148D01*
X017937Y020128D01*
X017687Y020828D02*
X019687Y020828D01*
X019707Y020830D01*
X019725Y020836D01*
X019743Y020845D01*
X019758Y020857D01*
X019770Y020872D01*
X019779Y020890D01*
X019785Y020908D01*
X019787Y020928D01*
X019787Y022628D01*
X019785Y022648D01*
X019779Y022666D01*
X019770Y022684D01*
X019758Y022699D01*
X019743Y022711D01*
X019725Y022720D01*
X019707Y022726D01*
X019687Y022728D01*
X017687Y022728D01*
X017667Y022726D01*
X017649Y022720D01*
X017631Y022711D01*
X017616Y022699D01*
X017604Y022684D01*
X017595Y022666D01*
X017589Y022648D01*
X017587Y022628D01*
X017587Y020928D01*
X017589Y020908D01*
X017595Y020890D01*
X017604Y020872D01*
X017616Y020857D01*
X017631Y020845D01*
X017649Y020836D01*
X017667Y020830D01*
X017687Y020828D01*
X017847Y021418D02*
X018127Y021418D01*
X018197Y021488D01*
X018197Y021628D01*
X018127Y021699D01*
X018197Y021879D02*
X018197Y022159D01*
X018197Y022019D02*
X017777Y022019D01*
X017917Y021879D01*
X017847Y021699D02*
X017777Y021628D01*
X017777Y021488D01*
X017847Y021418D01*
X018387Y021678D02*
X018687Y021678D01*
X018987Y021678D01*
X018987Y021878D02*
X018687Y021878D01*
X018687Y021928D01*
X018687Y021878D02*
X018387Y021878D01*
X018687Y021678D02*
X018687Y021628D01*
X019177Y021018D02*
X019597Y021018D01*
X019387Y021018D02*
X019317Y021088D01*
X019317Y021228D01*
X019387Y021299D01*
X019597Y021299D01*
X019527Y021479D02*
X019597Y021549D01*
X019597Y021759D01*
X019317Y021759D01*
X019317Y021939D02*
X019317Y022009D01*
X019387Y022079D01*
X019317Y022149D01*
X019387Y022219D01*
X019597Y022219D01*
X019597Y022079D02*
X019387Y022079D01*
X019317Y021939D02*
X019597Y021939D01*
X019597Y022399D02*
X019597Y022539D01*
X019597Y022469D02*
X019317Y022469D01*
X019317Y022399D01*
X019177Y022469D02*
X019107Y022469D01*
X019387Y022706D02*
X019317Y022776D01*
X019317Y022986D01*
X019177Y022986D02*
X019597Y022986D01*
X019597Y022776D01*
X019527Y022706D01*
X019387Y022706D01*
X019317Y023167D02*
X019317Y023237D01*
X019597Y023237D01*
X019597Y023167D02*
X019597Y023307D01*
X019527Y023544D02*
X019247Y023544D01*
X019317Y023614D02*
X019317Y023473D01*
X019527Y023544D02*
X019597Y023614D01*
X019527Y023780D02*
X019597Y023850D01*
X019597Y024061D01*
X019667Y024061D02*
X019737Y023991D01*
X019737Y023920D01*
X019667Y024061D02*
X019317Y024061D01*
X019317Y023780D02*
X019527Y023780D01*
X019177Y023237D02*
X019107Y023237D01*
X018687Y022928D02*
X018687Y025628D01*
X018685Y025648D01*
X018679Y025666D01*
X018670Y025684D01*
X018658Y025699D01*
X018643Y025711D01*
X018625Y025720D01*
X018607Y025726D01*
X018587Y025728D01*
X017787Y025728D01*
X017767Y025726D01*
X017749Y025720D01*
X017731Y025711D01*
X017716Y025699D01*
X017704Y025684D01*
X017695Y025666D01*
X017689Y025648D01*
X017687Y025628D01*
X017687Y022928D01*
X017689Y022908D01*
X017695Y022890D01*
X017704Y022872D01*
X017716Y022857D01*
X017731Y022845D01*
X017749Y022836D01*
X017767Y022830D01*
X017787Y022828D01*
X018587Y022828D01*
X018607Y022830D01*
X018625Y022836D01*
X018643Y022845D01*
X018658Y022857D01*
X018670Y022872D01*
X018679Y022890D01*
X018685Y022908D01*
X018687Y022928D01*
X018197Y022549D02*
X017777Y022549D01*
X017987Y022339D01*
X017987Y022619D01*
X017387Y022478D02*
X017387Y022899D01*
X017247Y022759D01*
X017107Y022899D01*
X017107Y022478D01*
X016927Y022548D02*
X016927Y022829D01*
X016647Y022548D01*
X016717Y022478D01*
X016857Y022478D01*
X016927Y022548D01*
X016647Y022548D02*
X016647Y022829D01*
X016717Y022899D01*
X016857Y022899D01*
X016927Y022829D01*
X016466Y022478D02*
X016186Y022478D01*
X016326Y022478D02*
X016326Y022899D01*
X016186Y022759D01*
X017187Y021828D02*
X017187Y021728D01*
X017187Y023728D02*
X017187Y023828D01*
X017937Y024158D02*
X018187Y024158D01*
X018187Y023678D01*
X018187Y024158D02*
X018437Y024158D01*
X018437Y024408D02*
X018187Y024408D01*
X018187Y024878D01*
X018187Y024408D02*
X017937Y024408D01*
X017512Y024733D02*
X017232Y024733D01*
X017372Y024733D02*
X017372Y025154D01*
X017232Y025014D01*
X017052Y024733D02*
X016772Y024733D01*
X016912Y024733D02*
X016912Y025154D01*
X016772Y025014D01*
X016591Y025084D02*
X016521Y025154D01*
X016311Y025154D01*
X016311Y024733D01*
X016311Y024873D02*
X016521Y024873D01*
X016591Y024943D01*
X016591Y025084D01*
X016451Y024873D02*
X016591Y024733D01*
X017027Y025478D02*
X016887Y025618D01*
X017307Y025618D01*
X017307Y025478D02*
X017307Y025759D01*
X017237Y025939D02*
X017307Y026009D01*
X017307Y026149D01*
X017237Y026219D01*
X016957Y026219D01*
X017237Y025939D01*
X016957Y025939D01*
X016887Y026009D01*
X016887Y026149D01*
X016957Y026219D01*
X016957Y026399D02*
X016887Y026469D01*
X016887Y026609D01*
X016957Y026679D01*
X017237Y026399D01*
X017307Y026469D01*
X017307Y026609D01*
X017237Y026679D01*
X016957Y026679D01*
X016887Y026859D02*
X017307Y026859D01*
X017167Y026859D02*
X017307Y027069D01*
X017167Y026859D02*
X017027Y027069D01*
X016957Y026399D02*
X017237Y026399D01*
X017696Y026269D02*
X017696Y025988D01*
X017766Y025918D01*
X017906Y025918D01*
X017976Y025988D01*
X018157Y025918D02*
X018437Y025918D01*
X018297Y025918D02*
X018297Y026339D01*
X018157Y026199D01*
X017976Y026269D02*
X017906Y026339D01*
X017766Y026339D01*
X017696Y026269D01*
X018617Y026339D02*
X018617Y026128D01*
X018757Y026199D01*
X018827Y026199D01*
X018897Y026128D01*
X018897Y025988D01*
X018827Y025918D01*
X018687Y025918D01*
X018617Y025988D01*
X018617Y026339D02*
X018897Y026339D01*
X018057Y029278D02*
X018060Y029335D01*
X018067Y029392D01*
X018080Y029448D01*
X018098Y029502D01*
X018121Y029555D01*
X018149Y029605D01*
X018181Y029653D01*
X018217Y029697D01*
X018257Y029738D01*
X018301Y029776D01*
X018347Y029809D01*
X018397Y029837D01*
X018449Y029861D01*
X018503Y029881D01*
X018559Y029895D01*
X018615Y029904D01*
X018673Y029908D01*
X018730Y029907D01*
X018787Y029900D01*
X018843Y029888D01*
X018898Y029872D01*
X018951Y029850D01*
X019002Y029824D01*
X019050Y029793D01*
X019096Y029758D01*
X019138Y029718D01*
X019176Y029676D01*
X019210Y029629D01*
X019240Y029580D01*
X019265Y029529D01*
X019285Y029475D01*
X019301Y029420D01*
X019311Y029364D01*
X019316Y029307D01*
X019316Y029249D01*
X019311Y029192D01*
X019301Y029136D01*
X019285Y029081D01*
X019265Y029027D01*
X019240Y028976D01*
X019210Y028927D01*
X019176Y028880D01*
X019138Y028838D01*
X019096Y028798D01*
X019050Y028763D01*
X019002Y028732D01*
X018951Y028706D01*
X018898Y028684D01*
X018843Y028668D01*
X018787Y028656D01*
X018730Y028649D01*
X018673Y028648D01*
X018615Y028652D01*
X018559Y028661D01*
X018503Y028675D01*
X018449Y028695D01*
X018397Y028719D01*
X018347Y028747D01*
X018301Y028780D01*
X018257Y028818D01*
X018217Y028859D01*
X018181Y028903D01*
X018149Y028951D01*
X018121Y029001D01*
X018098Y029054D01*
X018080Y029108D01*
X018067Y029164D01*
X018060Y029221D01*
X018057Y029278D01*
X017337Y029278D02*
X017343Y029401D01*
X017359Y029523D01*
X017387Y029642D01*
X017426Y029759D01*
X017475Y029872D01*
X017534Y029979D01*
X017602Y030081D01*
X017680Y030177D01*
X017766Y030265D01*
X017859Y030344D01*
X017959Y030415D01*
X018066Y030477D01*
X018177Y030528D01*
X018293Y030569D01*
X018412Y030600D01*
X018534Y030619D01*
X018656Y030628D01*
X018779Y030625D01*
X018901Y030611D01*
X019022Y030586D01*
X019139Y030550D01*
X019253Y030504D01*
X019362Y030447D01*
X019466Y030381D01*
X019563Y030306D01*
X019652Y030222D01*
X019734Y030130D01*
X019807Y030031D01*
X019871Y029926D01*
X019925Y029816D01*
X019969Y029701D01*
X020002Y029583D01*
X020024Y029462D01*
X020036Y029339D01*
X020036Y029217D01*
X020024Y029094D01*
X020002Y028973D01*
X019969Y028855D01*
X019925Y028740D01*
X019871Y028630D01*
X019807Y028525D01*
X019734Y028426D01*
X019652Y028334D01*
X019563Y028250D01*
X019466Y028175D01*
X019362Y028109D01*
X019253Y028052D01*
X019139Y028006D01*
X019022Y027970D01*
X018901Y027945D01*
X018779Y027931D01*
X018656Y027928D01*
X018534Y027937D01*
X018412Y027956D01*
X018293Y027987D01*
X018177Y028028D01*
X018066Y028079D01*
X017959Y028141D01*
X017859Y028212D01*
X017766Y028291D01*
X017680Y028379D01*
X017602Y028475D01*
X017534Y028577D01*
X017475Y028684D01*
X017426Y028797D01*
X017387Y028914D01*
X017359Y029033D01*
X017343Y029155D01*
X017337Y029278D01*
X019317Y021479D02*
X019527Y021479D01*
X018437Y019378D02*
X018437Y018908D01*
X018687Y018908D01*
X018437Y018908D02*
X018187Y018908D01*
X018187Y018658D02*
X018437Y018658D01*
X018437Y018178D01*
X018437Y018658D02*
X018687Y018658D01*
X019032Y018551D02*
X019102Y018481D01*
X019242Y018481D01*
X019312Y018551D01*
X019492Y018481D02*
X019772Y018761D01*
X019772Y018831D01*
X019702Y018901D01*
X019562Y018901D01*
X019492Y018831D01*
X019312Y018831D02*
X019242Y018901D01*
X019102Y018901D01*
X019032Y018831D01*
X019032Y018551D01*
X019492Y018481D02*
X019772Y018481D01*
X019812Y017214D02*
X019952Y017214D01*
X020022Y017144D01*
X020022Y017074D01*
X019952Y017003D01*
X019812Y017003D01*
X019742Y017074D01*
X019742Y017144D01*
X019812Y017214D01*
X019812Y017003D02*
X019742Y016933D01*
X019742Y016863D01*
X019812Y016793D01*
X019952Y016793D01*
X020022Y016863D01*
X020022Y016933D01*
X019952Y017003D01*
X019562Y016793D02*
X019282Y016793D01*
X019422Y016793D02*
X019422Y017214D01*
X019282Y017074D01*
X019101Y017144D02*
X019031Y017214D01*
X018891Y017214D01*
X018821Y017144D01*
X018821Y016863D01*
X018891Y016793D01*
X019031Y016793D01*
X019101Y016863D01*
X018937Y016528D02*
X018937Y016028D01*
X018687Y015778D01*
X018937Y015528D01*
X018937Y015028D01*
X018687Y014778D01*
X018937Y014528D01*
X018937Y014028D01*
X018687Y013778D01*
X017187Y013778D01*
X016937Y014028D01*
X016937Y014528D01*
X017187Y014778D01*
X016937Y015028D01*
X016937Y015528D01*
X017187Y015778D01*
X016937Y016028D01*
X016937Y016528D01*
X017187Y016778D01*
X018687Y016778D01*
X018937Y016528D01*
X017437Y018658D02*
X017187Y018658D01*
X017187Y018178D01*
X017187Y018658D02*
X016937Y018658D01*
X016937Y018908D02*
X017187Y018908D01*
X017187Y019378D01*
X017187Y018908D02*
X017437Y018908D01*
X018037Y013228D02*
X018837Y013228D01*
X018857Y013226D01*
X018875Y013220D01*
X018893Y013211D01*
X018908Y013199D01*
X018920Y013184D01*
X018929Y013166D01*
X018935Y013148D01*
X018937Y013128D01*
X018937Y010428D01*
X018935Y010408D01*
X018929Y010390D01*
X018920Y010372D01*
X018908Y010357D01*
X018893Y010345D01*
X018875Y010336D01*
X018857Y010330D01*
X018837Y010328D01*
X018037Y010328D01*
X018017Y010330D01*
X017999Y010336D01*
X017981Y010345D01*
X017966Y010357D01*
X017954Y010372D01*
X017945Y010390D01*
X017939Y010408D01*
X017937Y010428D01*
X017937Y013128D01*
X017939Y013148D01*
X017945Y013166D01*
X017954Y013184D01*
X017966Y013199D01*
X017981Y013211D01*
X017999Y013220D01*
X018017Y013226D01*
X018037Y013228D01*
X018437Y012378D02*
X018437Y011908D01*
X018687Y011908D01*
X018437Y011908D02*
X018187Y011908D01*
X018187Y011658D02*
X018437Y011658D01*
X018437Y011178D01*
X018437Y011658D02*
X018687Y011658D01*
X019127Y011788D02*
X019197Y011718D01*
X019337Y011718D01*
X019408Y011788D01*
X019588Y011788D02*
X019588Y011718D01*
X019588Y011788D02*
X019868Y012069D01*
X019868Y012139D01*
X019588Y012139D01*
X019408Y012069D02*
X019337Y012139D01*
X019197Y012139D01*
X019127Y012069D01*
X019127Y011788D01*
X017637Y010858D02*
X017357Y010858D01*
X017497Y010858D02*
X017497Y011279D01*
X017357Y011139D01*
X017177Y011209D02*
X017177Y011068D01*
X017107Y010998D01*
X016897Y010998D01*
X017037Y010998D02*
X017177Y010858D01*
X016897Y010858D02*
X016897Y011279D01*
X017107Y011279D01*
X017177Y011209D01*
X016894Y011478D02*
X016684Y011618D01*
X016894Y011759D01*
X016684Y011899D02*
X016684Y011478D01*
X016504Y011548D02*
X016504Y011829D01*
X016223Y011548D01*
X016293Y011478D01*
X016433Y011478D01*
X016504Y011548D01*
X016504Y011829D02*
X016433Y011899D01*
X016293Y011899D01*
X016223Y011829D01*
X016223Y011548D01*
X016043Y011478D02*
X015763Y011478D01*
X015903Y011478D02*
X015903Y011899D01*
X015763Y011759D01*
X017437Y012228D02*
X017437Y012328D01*
X018057Y002528D02*
X018060Y002585D01*
X018067Y002642D01*
X018080Y002698D01*
X018098Y002752D01*
X018121Y002805D01*
X018149Y002855D01*
X018181Y002903D01*
X018217Y002947D01*
X018257Y002988D01*
X018301Y003026D01*
X018347Y003059D01*
X018397Y003087D01*
X018449Y003111D01*
X018503Y003131D01*
X018559Y003145D01*
X018615Y003154D01*
X018673Y003158D01*
X018730Y003157D01*
X018787Y003150D01*
X018843Y003138D01*
X018898Y003122D01*
X018951Y003100D01*
X019002Y003074D01*
X019050Y003043D01*
X019096Y003008D01*
X019138Y002968D01*
X019176Y002926D01*
X019210Y002879D01*
X019240Y002830D01*
X019265Y002779D01*
X019285Y002725D01*
X019301Y002670D01*
X019311Y002614D01*
X019316Y002557D01*
X019316Y002499D01*
X019311Y002442D01*
X019301Y002386D01*
X019285Y002331D01*
X019265Y002277D01*
X019240Y002226D01*
X019210Y002177D01*
X019176Y002130D01*
X019138Y002088D01*
X019096Y002048D01*
X019050Y002013D01*
X019002Y001982D01*
X018951Y001956D01*
X018898Y001934D01*
X018843Y001918D01*
X018787Y001906D01*
X018730Y001899D01*
X018673Y001898D01*
X018615Y001902D01*
X018559Y001911D01*
X018503Y001925D01*
X018449Y001945D01*
X018397Y001969D01*
X018347Y001997D01*
X018301Y002030D01*
X018257Y002068D01*
X018217Y002109D01*
X018181Y002153D01*
X018149Y002201D01*
X018121Y002251D01*
X018098Y002304D01*
X018080Y002358D01*
X018067Y002414D01*
X018060Y002471D01*
X018057Y002528D01*
X017337Y002528D02*
X017343Y002651D01*
X017359Y002773D01*
X017387Y002892D01*
X017426Y003009D01*
X017475Y003122D01*
X017534Y003229D01*
X017602Y003331D01*
X017680Y003427D01*
X017766Y003515D01*
X017859Y003594D01*
X017959Y003665D01*
X018066Y003727D01*
X018177Y003778D01*
X018293Y003819D01*
X018412Y003850D01*
X018534Y003869D01*
X018656Y003878D01*
X018779Y003875D01*
X018901Y003861D01*
X019022Y003836D01*
X019139Y003800D01*
X019253Y003754D01*
X019362Y003697D01*
X019466Y003631D01*
X019563Y003556D01*
X019652Y003472D01*
X019734Y003380D01*
X019807Y003281D01*
X019871Y003176D01*
X019925Y003066D01*
X019969Y002951D01*
X020002Y002833D01*
X020024Y002712D01*
X020036Y002589D01*
X020036Y002467D01*
X020024Y002344D01*
X020002Y002223D01*
X019969Y002105D01*
X019925Y001990D01*
X019871Y001880D01*
X019807Y001775D01*
X019734Y001676D01*
X019652Y001584D01*
X019563Y001500D01*
X019466Y001425D01*
X019362Y001359D01*
X019253Y001302D01*
X019139Y001256D01*
X019022Y001220D01*
X018901Y001195D01*
X018779Y001181D01*
X018656Y001178D01*
X018534Y001187D01*
X018412Y001206D01*
X018293Y001237D01*
X018177Y001278D01*
X018066Y001329D01*
X017959Y001391D01*
X017859Y001462D01*
X017766Y001541D01*
X017680Y001629D01*
X017602Y001725D01*
X017534Y001827D01*
X017475Y001934D01*
X017426Y002047D01*
X017387Y002164D01*
X017359Y002283D01*
X017343Y002405D01*
X017337Y002528D01*
D14*
X017987Y005528D02*
X017985Y005582D01*
X017980Y005636D01*
X017971Y005689D01*
X017958Y005742D01*
X017942Y005793D01*
X017922Y005843D01*
X017899Y005892D01*
X017873Y005940D01*
X017844Y005985D01*
X017811Y006028D01*
X017776Y006069D01*
X017738Y006108D01*
X017698Y006144D01*
X017655Y006177D01*
X017610Y006207D01*
X017563Y006234D01*
X016790Y006223D02*
X016742Y006193D01*
X016697Y006160D01*
X016654Y006124D01*
X016613Y006086D01*
X016576Y006044D01*
X016541Y006000D01*
X016510Y005954D01*
X016481Y005905D01*
X016457Y005855D01*
X016436Y005803D01*
X016418Y005749D01*
X016405Y005695D01*
X016395Y005640D01*
X016389Y005584D01*
X016387Y005528D01*
X016389Y005475D01*
X016394Y005421D01*
X016403Y005369D01*
X016415Y005317D01*
X016431Y005266D01*
X016450Y005216D01*
X016473Y005167D01*
X016499Y005120D01*
X016527Y005075D01*
X016559Y005032D01*
X016593Y004992D01*
X016631Y004953D01*
X016670Y004917D01*
X017699Y004913D02*
X017739Y004949D01*
X017777Y004988D01*
X017812Y005029D01*
X017844Y005072D01*
X017874Y005117D01*
X017900Y005164D01*
X017922Y005213D01*
X017942Y005264D01*
X017958Y005315D01*
X017971Y005367D01*
X017980Y005421D01*
X017985Y005474D01*
X017987Y005528D01*
X017387Y005528D02*
X017389Y005584D01*
X017395Y005640D01*
X017405Y005695D01*
X017418Y005749D01*
X017436Y005803D01*
X017457Y005855D01*
X017481Y005905D01*
X017510Y005954D01*
X017541Y006000D01*
X017576Y006044D01*
X017613Y006086D01*
X017654Y006124D01*
X017697Y006160D01*
X017742Y006193D01*
X017790Y006223D01*
X017387Y005528D02*
X017389Y005475D01*
X017394Y005421D01*
X017403Y005369D01*
X017415Y005317D01*
X017431Y005266D01*
X017450Y005216D01*
X017473Y005167D01*
X017499Y005120D01*
X017527Y005075D01*
X017559Y005032D01*
X017593Y004992D01*
X017631Y004953D01*
X017670Y004917D01*
X018987Y005528D02*
X018985Y005582D01*
X018980Y005636D01*
X018971Y005689D01*
X018958Y005742D01*
X018942Y005793D01*
X018922Y005843D01*
X018899Y005892D01*
X018873Y005940D01*
X018844Y005985D01*
X018811Y006028D01*
X018776Y006069D01*
X018738Y006108D01*
X018698Y006144D01*
X018655Y006177D01*
X018610Y006207D01*
X018563Y006234D01*
X018987Y005528D02*
X018985Y005474D01*
X018980Y005421D01*
X018971Y005367D01*
X018958Y005315D01*
X018942Y005264D01*
X018922Y005213D01*
X018900Y005164D01*
X018874Y005117D01*
X018844Y005072D01*
X018812Y005029D01*
X018777Y004988D01*
X018739Y004949D01*
X018699Y004913D01*
X019987Y005528D02*
X019985Y005582D01*
X019980Y005636D01*
X019971Y005689D01*
X019958Y005742D01*
X019942Y005793D01*
X019922Y005843D01*
X019899Y005892D01*
X019873Y005940D01*
X019844Y005985D01*
X019811Y006028D01*
X019776Y006069D01*
X019738Y006108D01*
X019698Y006144D01*
X019655Y006177D01*
X019610Y006207D01*
X019563Y006234D01*
X018790Y006223D02*
X018742Y006193D01*
X018697Y006160D01*
X018654Y006124D01*
X018613Y006086D01*
X018576Y006044D01*
X018541Y006000D01*
X018510Y005954D01*
X018481Y005905D01*
X018457Y005855D01*
X018436Y005803D01*
X018418Y005749D01*
X018405Y005695D01*
X018395Y005640D01*
X018389Y005584D01*
X018387Y005528D01*
X018389Y005475D01*
X018394Y005421D01*
X018403Y005369D01*
X018415Y005317D01*
X018431Y005266D01*
X018450Y005216D01*
X018473Y005167D01*
X018499Y005120D01*
X018527Y005075D01*
X018559Y005032D01*
X018593Y004992D01*
X018631Y004953D01*
X018670Y004917D01*
X019699Y004913D02*
X019739Y004949D01*
X019777Y004988D01*
X019812Y005029D01*
X019844Y005072D01*
X019874Y005117D01*
X019900Y005164D01*
X019922Y005213D01*
X019942Y005264D01*
X019958Y005315D01*
X019971Y005367D01*
X019980Y005421D01*
X019985Y005474D01*
X019987Y005528D01*
X018812Y017028D02*
X017250Y017028D01*
X017250Y017278D01*
D15*
X018096Y029278D02*
X018098Y029332D01*
X018106Y029385D01*
X018118Y029437D01*
X018135Y029489D01*
X018156Y029538D01*
X018182Y029585D01*
X018212Y029630D01*
X018246Y029671D01*
X018284Y029710D01*
X018325Y029745D01*
X018369Y029776D01*
X018415Y029803D01*
X018464Y029825D01*
X018515Y029843D01*
X018567Y029857D01*
X018620Y029865D01*
X018674Y029869D01*
X018727Y029868D01*
X018781Y029862D01*
X018833Y029851D01*
X018885Y029835D01*
X018935Y029815D01*
X018982Y029790D01*
X019028Y029761D01*
X019070Y029728D01*
X019110Y029691D01*
X019145Y029651D01*
X019177Y029608D01*
X019205Y029562D01*
X019229Y029513D01*
X019248Y029463D01*
X019263Y029411D01*
X019272Y029358D01*
X019277Y029305D01*
X019277Y029251D01*
X019272Y029198D01*
X019263Y029145D01*
X019248Y029093D01*
X019229Y029043D01*
X019205Y028994D01*
X019177Y028948D01*
X019145Y028905D01*
X019110Y028865D01*
X019070Y028828D01*
X019028Y028795D01*
X018983Y028766D01*
X018935Y028741D01*
X018885Y028721D01*
X018833Y028705D01*
X018781Y028694D01*
X018727Y028688D01*
X018674Y028687D01*
X018620Y028691D01*
X018567Y028699D01*
X018515Y028713D01*
X018464Y028731D01*
X018415Y028753D01*
X018369Y028780D01*
X018325Y028811D01*
X018284Y028846D01*
X018246Y028885D01*
X018212Y028926D01*
X018182Y028971D01*
X018156Y029018D01*
X018135Y029067D01*
X018118Y029119D01*
X018106Y029171D01*
X018098Y029224D01*
X018096Y029278D01*
X002346Y029278D02*
X002348Y029332D01*
X002356Y029385D01*
X002368Y029437D01*
X002385Y029489D01*
X002406Y029538D01*
X002432Y029585D01*
X002462Y029630D01*
X002496Y029671D01*
X002534Y029710D01*
X002575Y029745D01*
X002619Y029776D01*
X002665Y029803D01*
X002714Y029825D01*
X002765Y029843D01*
X002817Y029857D01*
X002870Y029865D01*
X002924Y029869D01*
X002977Y029868D01*
X003031Y029862D01*
X003083Y029851D01*
X003135Y029835D01*
X003185Y029815D01*
X003232Y029790D01*
X003278Y029761D01*
X003320Y029728D01*
X003360Y029691D01*
X003395Y029651D01*
X003427Y029608D01*
X003455Y029562D01*
X003479Y029513D01*
X003498Y029463D01*
X003513Y029411D01*
X003522Y029358D01*
X003527Y029305D01*
X003527Y029251D01*
X003522Y029198D01*
X003513Y029145D01*
X003498Y029093D01*
X003479Y029043D01*
X003455Y028994D01*
X003427Y028948D01*
X003395Y028905D01*
X003360Y028865D01*
X003320Y028828D01*
X003278Y028795D01*
X003233Y028766D01*
X003185Y028741D01*
X003135Y028721D01*
X003083Y028705D01*
X003031Y028694D01*
X002977Y028688D01*
X002924Y028687D01*
X002870Y028691D01*
X002817Y028699D01*
X002765Y028713D01*
X002714Y028731D01*
X002665Y028753D01*
X002619Y028780D01*
X002575Y028811D01*
X002534Y028846D01*
X002496Y028885D01*
X002462Y028926D01*
X002432Y028971D01*
X002406Y029018D01*
X002385Y029067D01*
X002368Y029119D01*
X002356Y029171D01*
X002348Y029224D01*
X002346Y029278D01*
X002346Y002528D02*
X002348Y002582D01*
X002356Y002635D01*
X002368Y002687D01*
X002385Y002739D01*
X002406Y002788D01*
X002432Y002835D01*
X002462Y002880D01*
X002496Y002921D01*
X002534Y002960D01*
X002575Y002995D01*
X002619Y003026D01*
X002665Y003053D01*
X002714Y003075D01*
X002765Y003093D01*
X002817Y003107D01*
X002870Y003115D01*
X002924Y003119D01*
X002977Y003118D01*
X003031Y003112D01*
X003083Y003101D01*
X003135Y003085D01*
X003185Y003065D01*
X003232Y003040D01*
X003278Y003011D01*
X003320Y002978D01*
X003360Y002941D01*
X003395Y002901D01*
X003427Y002858D01*
X003455Y002812D01*
X003479Y002763D01*
X003498Y002713D01*
X003513Y002661D01*
X003522Y002608D01*
X003527Y002555D01*
X003527Y002501D01*
X003522Y002448D01*
X003513Y002395D01*
X003498Y002343D01*
X003479Y002293D01*
X003455Y002244D01*
X003427Y002198D01*
X003395Y002155D01*
X003360Y002115D01*
X003320Y002078D01*
X003278Y002045D01*
X003233Y002016D01*
X003185Y001991D01*
X003135Y001971D01*
X003083Y001955D01*
X003031Y001944D01*
X002977Y001938D01*
X002924Y001937D01*
X002870Y001941D01*
X002817Y001949D01*
X002765Y001963D01*
X002714Y001981D01*
X002665Y002003D01*
X002619Y002030D01*
X002575Y002061D01*
X002534Y002096D01*
X002496Y002135D01*
X002462Y002176D01*
X002432Y002221D01*
X002406Y002268D01*
X002385Y002317D01*
X002368Y002369D01*
X002356Y002421D01*
X002348Y002474D01*
X002346Y002528D01*
X018096Y002528D02*
X018098Y002582D01*
X018106Y002635D01*
X018118Y002687D01*
X018135Y002739D01*
X018156Y002788D01*
X018182Y002835D01*
X018212Y002880D01*
X018246Y002921D01*
X018284Y002960D01*
X018325Y002995D01*
X018369Y003026D01*
X018415Y003053D01*
X018464Y003075D01*
X018515Y003093D01*
X018567Y003107D01*
X018620Y003115D01*
X018674Y003119D01*
X018727Y003118D01*
X018781Y003112D01*
X018833Y003101D01*
X018885Y003085D01*
X018935Y003065D01*
X018982Y003040D01*
X019028Y003011D01*
X019070Y002978D01*
X019110Y002941D01*
X019145Y002901D01*
X019177Y002858D01*
X019205Y002812D01*
X019229Y002763D01*
X019248Y002713D01*
X019263Y002661D01*
X019272Y002608D01*
X019277Y002555D01*
X019277Y002501D01*
X019272Y002448D01*
X019263Y002395D01*
X019248Y002343D01*
X019229Y002293D01*
X019205Y002244D01*
X019177Y002198D01*
X019145Y002155D01*
X019110Y002115D01*
X019070Y002078D01*
X019028Y002045D01*
X018983Y002016D01*
X018935Y001991D01*
X018885Y001971D01*
X018833Y001955D01*
X018781Y001944D01*
X018727Y001938D01*
X018674Y001937D01*
X018620Y001941D01*
X018567Y001949D01*
X018515Y001963D01*
X018464Y001981D01*
X018415Y002003D01*
X018369Y002030D01*
X018325Y002061D01*
X018284Y002096D01*
X018246Y002135D01*
X018212Y002176D01*
X018182Y002221D01*
X018156Y002268D01*
X018135Y002317D01*
X018118Y002369D01*
X018106Y002421D01*
X018098Y002474D01*
X018096Y002528D01*
M02*
