G75*
G70*
%OFA0B0*%
%FSLAX24Y24*%
%IPPOS*%
%LPD*%
%AMOC8*
5,1,8,0,0,1.08239X$1,22.5*
%
%ADD10C,0.0160*%
%ADD11O,0.1040X0.0520*%
%ADD12C,0.0600*%
%ADD13OC8,0.0600*%
%ADD14OC8,0.0520*%
%ADD15O,0.0880X0.0440*%
%ADD16OC8,0.0620*%
%ADD17C,0.0620*%
%ADD18O,0.0705X0.1410*%
%ADD19OC8,0.0630*%
%ADD20C,0.0630*%
%ADD21OC8,0.0500*%
%ADD22C,0.0197*%
%ADD23OC8,0.0436*%
D10*
X009310Y030108D02*
X009728Y030108D01*
X009728Y030736D01*
X010035Y030632D02*
X010035Y030422D01*
X010139Y030318D01*
X010453Y030318D01*
X010244Y030318D02*
X010035Y030108D01*
X010453Y030108D02*
X010453Y030736D01*
X010139Y030736D01*
X010035Y030632D01*
X010760Y030736D02*
X011178Y030736D01*
X010969Y030736D02*
X010969Y030108D01*
X011485Y030213D02*
X011589Y030108D01*
X011799Y030108D01*
X011903Y030213D01*
X011903Y030632D01*
X011799Y030736D01*
X011589Y030736D01*
X011485Y030632D01*
X012918Y030527D02*
X013023Y030527D01*
X013232Y030318D01*
X013232Y030527D02*
X013232Y030108D01*
X013539Y030213D02*
X013539Y030422D01*
X013643Y030527D01*
X013853Y030527D01*
X013957Y030422D01*
X013957Y030213D01*
X013853Y030108D01*
X013643Y030108D01*
X013539Y030213D01*
X014264Y030213D02*
X014368Y030318D01*
X014578Y030318D01*
X014682Y030422D01*
X014578Y030527D01*
X014264Y030527D01*
X014264Y030213D02*
X014368Y030108D01*
X014682Y030108D01*
X014989Y030108D02*
X014989Y030422D01*
X015093Y030527D01*
X015407Y030527D01*
X015407Y030108D01*
X015714Y030318D02*
X016132Y030318D01*
X016132Y030422D02*
X016028Y030527D01*
X015818Y030527D01*
X015714Y030422D01*
X015714Y030318D01*
X015818Y030108D02*
X016028Y030108D01*
X016132Y030213D01*
X016132Y030422D01*
X016439Y030318D02*
X016439Y030213D01*
X016543Y030108D01*
X016753Y030108D01*
X016857Y030213D01*
X016753Y030422D02*
X016543Y030422D01*
X016439Y030318D01*
X016439Y030632D02*
X016543Y030736D01*
X016753Y030736D01*
X016857Y030632D01*
X016857Y030527D01*
X016753Y030422D01*
D11*
X015937Y025778D03*
X015937Y024778D03*
X015937Y023778D03*
X015937Y022778D03*
X015937Y021778D03*
X015937Y020778D03*
X015937Y019778D03*
X015937Y018778D03*
X015937Y017778D03*
X015937Y016778D03*
X015937Y015778D03*
X015937Y014778D03*
X015937Y013778D03*
X015937Y012778D03*
X012937Y012778D03*
X012937Y013778D03*
X012937Y014778D03*
X012937Y015778D03*
X012937Y016778D03*
X012937Y017778D03*
X012937Y018778D03*
X012937Y019778D03*
X012937Y020778D03*
X012937Y021778D03*
X012937Y022778D03*
X012937Y023778D03*
X012937Y024778D03*
X012937Y025778D03*
X007437Y018278D03*
X007437Y017278D03*
X007437Y016278D03*
X007437Y015278D03*
X007437Y014278D03*
X007437Y013278D03*
X007437Y012278D03*
X007437Y011278D03*
X004437Y011278D03*
X004437Y012278D03*
X004437Y013278D03*
X004437Y014278D03*
X004437Y015278D03*
X004437Y016278D03*
X004437Y017278D03*
X004437Y018278D03*
D12*
X004437Y008528D03*
X018437Y014278D03*
X006937Y029278D03*
D13*
X006937Y028278D03*
X005937Y028278D03*
X005937Y029278D03*
X004937Y029278D03*
X004937Y028278D03*
X011187Y010278D03*
X011187Y009278D03*
X012187Y009278D03*
X012187Y010278D03*
X013187Y010278D03*
X013187Y009278D03*
X014187Y009278D03*
X014187Y010278D03*
X015187Y010278D03*
X015187Y009278D03*
X017437Y014278D03*
X017437Y015278D03*
X017437Y016278D03*
X018437Y016278D03*
X018437Y015278D03*
X005437Y008528D03*
X005437Y007528D03*
X005437Y006528D03*
X004437Y006528D03*
X004437Y007528D03*
D14*
X007437Y007028D03*
X007437Y006028D03*
X008437Y006028D03*
X008437Y007028D03*
X009437Y007028D03*
X009437Y006028D03*
X010437Y006028D03*
X010437Y007028D03*
X011437Y007028D03*
X011437Y006028D03*
X012437Y006028D03*
X012437Y007028D03*
X017187Y007028D03*
X017187Y008028D03*
X018187Y008028D03*
X018187Y007028D03*
X018187Y006028D03*
X018187Y005028D03*
X019187Y005028D03*
X019187Y006028D03*
X019187Y007028D03*
X019187Y008028D03*
X018437Y010778D03*
X017437Y011778D03*
X017437Y012778D03*
X018437Y012778D03*
X018437Y017778D03*
X017187Y017778D03*
X017187Y019778D03*
X017187Y021278D03*
X017187Y022278D03*
X017187Y023278D03*
X017187Y024278D03*
X018187Y023278D03*
X018687Y022278D03*
X018687Y021278D03*
X018437Y019778D03*
X018187Y025278D03*
X011437Y020778D03*
X010437Y020778D03*
X007437Y019778D03*
X005437Y019778D03*
X004187Y021278D03*
X002187Y021278D03*
X004187Y025028D03*
X003187Y025778D03*
X002437Y025278D03*
X002437Y026278D03*
X004187Y027028D03*
X010687Y015028D03*
X010687Y014028D03*
X017187Y006028D03*
X017187Y005028D03*
D15*
X011187Y016778D03*
X011187Y018778D03*
D16*
X002687Y018778D03*
X002687Y017278D03*
X002687Y013778D03*
X002687Y012278D03*
D17*
X002687Y011278D03*
X002687Y014778D03*
X002687Y016278D03*
X002687Y019778D03*
D18*
X005485Y002778D03*
X007453Y002778D03*
X009422Y002778D03*
X011390Y002778D03*
X013453Y002778D03*
X015422Y002778D03*
D19*
X003437Y023278D03*
D20*
X002437Y023278D03*
D21*
X011187Y025278D03*
X015937Y026778D03*
X019687Y015278D03*
D22*
X001937Y021278D02*
X001937Y004528D01*
X004437Y004528D01*
X004437Y006528D01*
X005437Y006528D02*
X007937Y006528D01*
X008437Y006028D01*
X008437Y001528D01*
X010437Y001528D01*
X010437Y006028D01*
X010437Y007028D02*
X009437Y007028D01*
X009437Y022278D01*
X013937Y022278D01*
X014437Y021778D01*
X015937Y021778D01*
X017187Y021278D02*
X018687Y021278D01*
X018687Y019778D01*
X018437Y019778D02*
X017187Y019778D01*
X015937Y019778D01*
X014937Y019778D01*
X013937Y018778D01*
X012937Y018778D01*
X012687Y018778D01*
X011937Y019528D01*
X010437Y019528D01*
X010437Y015778D01*
X010687Y015528D01*
X010687Y015028D01*
X010687Y014028D02*
X011437Y014028D01*
X011437Y016528D01*
X011187Y016778D01*
X012937Y016778D01*
X012937Y015778D02*
X012500Y015341D01*
X011937Y015341D01*
X011937Y011528D01*
X013187Y011528D01*
X013187Y010278D01*
X014187Y009278D02*
X014187Y009028D01*
X014937Y008278D01*
X015937Y008278D01*
X016937Y009278D01*
X016937Y010528D01*
X015937Y011528D01*
X015937Y012778D01*
X016687Y013278D02*
X017187Y012778D01*
X017437Y012778D01*
X017187Y013528D02*
X018437Y013528D01*
X018687Y013528D01*
X018937Y013278D01*
X018937Y010028D01*
X017187Y008278D01*
X017187Y008028D01*
X017187Y007028D02*
X017187Y006028D01*
X017187Y005028D02*
X016437Y005028D01*
X016437Y001528D01*
X013437Y001528D01*
X012437Y001528D01*
X012437Y006028D01*
X012437Y007028D02*
X011437Y007028D01*
X011437Y006028D02*
X011437Y002778D01*
X011390Y002778D01*
X010437Y001528D02*
X012437Y001528D01*
X013437Y001528D02*
X013437Y002778D01*
X013453Y002778D01*
X015422Y002778D02*
X015437Y002778D01*
X015437Y006528D01*
X014187Y007778D01*
X009937Y007778D01*
X009937Y010278D01*
X011187Y010278D01*
X011687Y009778D02*
X011187Y009278D01*
X011687Y009778D02*
X015937Y009778D01*
X015937Y010778D01*
X014437Y012278D01*
X014437Y013278D01*
X016687Y013278D01*
X017187Y013528D02*
X016437Y014278D01*
X014937Y014278D01*
X014937Y015778D01*
X015937Y015778D01*
X016937Y015778D02*
X015937Y016778D01*
X015937Y017778D02*
X017187Y017778D01*
X015937Y017778D02*
X014437Y017778D01*
X014437Y013278D01*
X014000Y013528D02*
X014000Y011841D01*
X015187Y010653D01*
X015187Y010278D01*
X015187Y010216D01*
X014000Y013528D02*
X013750Y013778D01*
X012937Y013778D01*
X012937Y017778D02*
X012187Y017778D01*
X011187Y018778D01*
X010437Y019528D02*
X010437Y020778D01*
X009937Y021778D02*
X009937Y010278D01*
X008937Y013278D02*
X008937Y023778D01*
X012937Y023778D01*
X012937Y022778D02*
X013937Y022778D01*
X014437Y023278D01*
X017187Y023278D01*
X018187Y023278D01*
X018687Y022278D02*
X018687Y025028D01*
X018437Y025278D01*
X018187Y025278D01*
X017187Y024278D02*
X016687Y023778D01*
X015937Y023778D01*
X015937Y024778D02*
X014937Y024778D01*
X014437Y025278D01*
X011937Y025278D01*
X011937Y027153D01*
X010687Y027153D01*
X011187Y025278D02*
X006937Y025278D01*
X006937Y025153D01*
X006937Y020278D01*
X007437Y019778D01*
X008437Y019778D01*
X008437Y017278D01*
X008437Y014778D01*
X006437Y014778D01*
X006437Y012278D01*
X007437Y012278D01*
X007437Y013278D02*
X008937Y013278D01*
X006437Y012278D02*
X006393Y012276D01*
X006350Y012270D01*
X006308Y012261D01*
X006266Y012248D01*
X006226Y012231D01*
X006187Y012211D01*
X006150Y012188D01*
X006116Y012161D01*
X006083Y012132D01*
X006054Y012099D01*
X006027Y012065D01*
X006004Y012028D01*
X005984Y011989D01*
X005967Y011949D01*
X005954Y011907D01*
X005945Y011865D01*
X005939Y011822D01*
X005937Y011778D01*
X005935Y011734D01*
X005929Y011691D01*
X005920Y011649D01*
X005907Y011607D01*
X005890Y011567D01*
X005870Y011528D01*
X005847Y011491D01*
X005820Y011457D01*
X005791Y011424D01*
X005758Y011395D01*
X005724Y011368D01*
X005687Y011345D01*
X005648Y011325D01*
X005608Y011308D01*
X005566Y011295D01*
X005524Y011286D01*
X005481Y011280D01*
X005437Y011278D01*
X005437Y008528D01*
X005437Y007528D01*
X005437Y006528D01*
X004437Y004528D02*
X007437Y004528D01*
X007437Y006028D01*
X007437Y007028D02*
X008437Y007028D01*
X009437Y006028D02*
X009437Y002778D01*
X009422Y002778D01*
X007453Y002778D02*
X007437Y002778D01*
X007437Y004528D01*
X005485Y002778D02*
X005437Y002778D01*
X005437Y011278D02*
X004437Y011278D01*
X002687Y011278D01*
X002687Y012278D02*
X003687Y013278D01*
X004437Y013278D01*
X004437Y014278D02*
X003687Y014278D01*
X003187Y013778D01*
X002687Y013778D01*
X002687Y014778D02*
X003187Y014778D01*
X003687Y015278D01*
X004437Y015278D01*
X004437Y016278D02*
X005437Y016278D01*
X005437Y017778D01*
X003687Y017778D01*
X002687Y018778D01*
X002687Y019778D02*
X004187Y018278D01*
X004437Y018278D01*
X004437Y017278D02*
X003937Y017278D01*
X002937Y016278D01*
X002687Y016278D01*
X002187Y021278D02*
X001937Y021278D01*
X002187Y021278D02*
X002437Y021528D01*
X002437Y023278D01*
X002437Y025278D01*
X003187Y025778D02*
X003437Y025778D01*
X004187Y025028D01*
X006937Y025028D01*
X006937Y025153D01*
X006937Y025278D02*
X006937Y028278D01*
X006437Y028778D02*
X005937Y028278D01*
X006437Y028778D02*
X008687Y028778D01*
X008687Y027778D01*
X013437Y027778D01*
X015437Y025778D01*
X015937Y025778D01*
X015937Y026778D02*
X019187Y026778D01*
X019187Y016278D01*
X018437Y016278D01*
X017937Y015778D02*
X018437Y015278D01*
X019687Y015278D01*
X019437Y014778D02*
X019437Y009278D01*
X018187Y008028D01*
X018187Y007028D02*
X018187Y006028D01*
X018187Y005028D02*
X017187Y005028D01*
X018187Y005028D02*
X019187Y005028D01*
X019187Y006028D02*
X019187Y007028D01*
X018437Y013528D02*
X018437Y014278D01*
X017937Y014778D02*
X019437Y014778D01*
X017937Y014778D02*
X017437Y015278D01*
X017937Y015778D02*
X016937Y015778D01*
X018437Y017778D02*
X018437Y018778D01*
X015937Y018778D01*
X017187Y022278D02*
X018687Y022278D01*
X012937Y021778D02*
X009937Y021778D01*
X012437Y017778D02*
X012937Y017778D01*
X008437Y017278D02*
X007437Y017278D01*
X004187Y021278D02*
X003437Y022028D01*
X003437Y023278D01*
X003437Y025778D01*
X002437Y026278D02*
X002437Y027028D01*
X004187Y027028D01*
X004937Y027028D01*
X004937Y028278D01*
D23*
X010687Y027153D03*
M02*
